<svg width="40" height="40" viewBox="0 0 40 40" fill="none" xmlns="http://www.w3.org/2000/svg">
<path fill-rule="evenodd" clip-rule="evenodd" d="M21.1719 3.67188C20.7552 3.67188 20.3386 3.67188 19.9219 3.67188C19.5052 3.67188 19.0886 3.67188 18.6719 3.67188C18.2552 3.67188 17.8386 3.67188 17.4219 3.67188C17.4219 3.2552 17.4219 2.83855 17.4219 2.42188C18.6719 2.42188 19.9219 2.42188 21.1719 2.42188C21.1719 2.83855 21.1719 3.2552 21.1719 3.67188Z" fill="black"/>
<path fill-rule="evenodd" clip-rule="evenodd" d="M17.4219 3.67188C17.4219 4.08855 17.4219 4.5052 17.4219 4.92188C17.0052 4.92188 16.5886 4.92188 16.1719 4.92188C15.3385 4.92188 14.5052 4.92188 13.6719 4.92188C13.6719 4.5052 13.6719 4.08855 13.6719 3.67188C14.9219 3.67188 16.1719 3.67188 17.4219 3.67188Z" fill="black"/>
<path fill-rule="evenodd" clip-rule="evenodd" d="M17.4219 3.67188C17.8386 3.67188 18.2552 3.67188 18.6719 3.67188C18.6719 4.08855 18.6719 4.5052 18.6719 4.92188C19.0886 4.92188 19.5052 4.92188 19.9219 4.92188C19.9219 5.33855 19.9219 5.7552 19.9219 6.17188C20.3386 6.17188 20.7552 6.17188 21.1719 6.17188C21.1719 6.58855 21.1719 7.0052 21.1719 7.42188C21.1719 7.83855 21.1719 8.2552 21.1719 8.67188C22.4219 8.67188 23.6719 8.67188 24.9219 8.67188C24.9219 9.08855 24.9219 9.5052 24.9219 9.92188C25.3386 9.92188 25.7552 9.92188 26.1719 9.92188C26.1719 9.5052 26.1719 9.08855 26.1719 8.67188C26.5886 8.67188 27.0052 8.67188 27.4219 8.67188C27.4219 9.08855 27.4219 9.5052 27.4219 9.92188C27.8386 9.92188 28.2552 9.92188 28.6719 9.92188C28.6719 10.3385 28.6719 10.7552 28.6719 11.1719C29.0886 11.1719 29.5052 11.1719 29.9219 11.1719C29.9219 11.5885 29.9219 12.0052 29.9219 12.4219C29.9219 12.8385 29.9219 13.2552 29.9219 13.6719C30.3386 13.6719 30.7552 13.6719 31.1719 13.6719C31.5886 13.6719 32.0052 13.6719 32.4219 13.6719C32.4219 14.0885 32.4219 14.5052 32.4219 14.9219C32.0052 14.9219 31.5886 14.9219 31.1719 14.9219C31.1719 15.7552 31.1719 16.5886 31.1719 17.4219C30.7552 17.4219 30.3386 17.4219 29.9219 17.4219C29.9219 17.8386 29.9219 18.2552 29.9219 18.6719C29.0886 18.6719 28.2552 18.6719 27.4219 18.6719C27.4219 18.2552 27.4219 17.8386 27.4219 17.4219C26.1719 17.4219 24.9219 17.4219 23.6719 17.4219C23.6719 17.0052 23.6719 16.5886 23.6719 16.1719C24.5052 16.1719 25.3386 16.1719 26.1719 16.1719C26.1719 15.7552 26.1719 15.3385 26.1719 14.9219C25.7552 14.9219 25.3386 14.9219 24.9219 14.9219C24.9219 14.5052 24.9219 14.0885 24.9219 13.6719C24.0886 13.6719 23.2552 13.6719 22.4219 13.6719C22.4219 14.0885 22.4219 14.5052 22.4219 14.9219C22.0052 14.9219 21.5886 14.9219 21.1719 14.9219C21.1719 14.5052 21.1719 14.0885 21.1719 13.6719C20.7552 13.6719 20.3386 13.6719 19.9219 13.6719C19.9219 13.2552 19.9219 12.8385 19.9219 12.4219C19.9219 12.0052 19.9219 11.5885 19.9219 11.1719C19.5052 11.1719 19.0886 11.1719 18.6719 11.1719C18.6719 11.5885 18.6719 12.0052 18.6719 12.4219C18.2552 12.4219 17.8386 12.4219 17.4219 12.4219C17.4219 12.0052 17.4219 11.5885 17.4219 11.1719C17.0052 11.1719 16.5886 11.1719 16.1719 11.1719C16.1719 11.5885 16.1719 12.0052 16.1719 12.4219C15.3385 12.4219 14.5052 12.4219 13.6719 12.4219C13.6719 12.0052 13.6719 11.5885 13.6719 11.1719C13.6719 10.7552 13.6719 10.3385 13.6719 9.92188C12.8385 9.92188 12.0052 9.92188 11.1719 9.92188C11.1719 10.3385 11.1719 10.7552 11.1719 11.1719C11.1719 11.5885 11.1719 12.0052 11.1719 12.4219C10.7552 12.4219 10.3385 12.4219 9.92188 12.4219C9.92188 12.8385 9.92188 13.2552 9.92188 13.6719C9.5052 13.6719 9.08855 13.6719 8.67188 13.6719C8.67188 13.2552 8.67188 12.8385 8.67188 12.4219C8.67188 12.0052 8.67188 11.5885 8.67188 11.1719C8.2552 11.1719 7.83855 11.1719 7.42188 11.1719C7.42188 10.3385 7.42188 9.5052 7.42188 8.67188C8.67188 8.67188 9.92188 8.67188 11.1719 8.67188C11.1719 8.2552 11.1719 7.83855 11.1719 7.42188C11.5885 7.42188 12.0052 7.42188 12.4219 7.42188C12.4219 7.83855 12.4219 8.2552 12.4219 8.67188C12.8385 8.67188 13.2552 8.67188 13.6719 8.67188C13.6719 8.2552 13.6719 7.83855 13.6719 7.42188C14.5052 7.42188 15.3385 7.42188 16.1719 7.42188C16.1719 7.0052 16.1719 6.58855 16.1719 6.17188C16.1719 5.7552 16.1719 5.33855 16.1719 4.92188C16.5886 4.92188 17.0052 4.92188 17.4219 4.92188C17.4219 4.5052 17.4219 4.08855 17.4219 3.67188Z" fill="#BEBFBE"/>
<path fill-rule="evenodd" clip-rule="evenodd" d="M18.6719 3.67188C19.0886 3.67188 19.5052 3.67188 19.9219 3.67188C19.9219 4.08855 19.9219 4.5052 19.9219 4.92188C19.5052 4.92188 19.0886 4.92188 18.6719 4.92188C18.6719 4.5052 18.6719 4.08855 18.6719 3.67188Z" fill="#7F807F"/>
<path fill-rule="evenodd" clip-rule="evenodd" d="M19.9219 3.67188C20.3386 3.67188 20.7552 3.67188 21.1719 3.67188C21.1719 4.08855 21.1719 4.5052 21.1719 4.92188C20.7552 4.92188 20.3386 4.92188 19.9219 4.92188C19.9219 4.5052 19.9219 4.08855 19.9219 3.67188Z" fill="#BEBFBE"/>
<path fill-rule="evenodd" clip-rule="evenodd" d="M21.1719 3.67188C21.5886 3.67188 22.0052 3.67188 22.4219 3.67188C22.4219 4.08855 22.4219 4.5052 22.4219 4.92188C22.0052 4.92188 21.5886 4.92188 21.1719 4.92188C21.1719 4.5052 21.1719 4.08855 21.1719 3.67188Z" fill="black"/>
<path fill-rule="evenodd" clip-rule="evenodd" d="M13.6719 4.92188C13.6719 5.33855 13.6719 5.7552 13.6719 6.17188C13.2552 6.17188 12.8385 6.17188 12.4219 6.17188C12.4219 5.7552 12.4219 5.33855 12.4219 4.92188C12.8385 4.92188 13.2552 4.92188 13.6719 4.92188Z" fill="black"/>
<path fill-rule="evenodd" clip-rule="evenodd" d="M13.6719 4.92188C14.5052 4.92188 15.3385 4.92188 16.1719 4.92188C16.1719 5.33855 16.1719 5.7552 16.1719 6.17188C15.3385 6.17188 14.5052 6.17188 13.6719 6.17188C13.6719 5.7552 13.6719 5.33855 13.6719 4.92188Z" fill="#3F403F"/>
<path fill-rule="evenodd" clip-rule="evenodd" d="M19.9219 4.92188C20.3386 4.92188 20.7552 4.92188 21.1719 4.92188C21.1719 5.33855 21.1719 5.7552 21.1719 6.17188C20.7552 6.17188 20.3386 6.17188 19.9219 6.17188C19.9219 5.7552 19.9219 5.33855 19.9219 4.92188Z" fill="#7F807F"/>
<path fill-rule="evenodd" clip-rule="evenodd" d="M21.1719 4.92188C21.5886 4.92188 22.0052 4.92188 22.4219 4.92188C22.4219 5.33855 22.4219 5.7552 22.4219 6.17188C22.0052 6.17188 21.5886 6.17188 21.1719 6.17188C21.1719 5.7552 21.1719 5.33855 21.1719 4.92188Z" fill="#BEBFBE"/>
<path fill-rule="evenodd" clip-rule="evenodd" d="M22.4219 4.92188C22.8386 4.92188 23.2552 4.92188 23.6719 4.92188C23.6719 5.33855 23.6719 5.7552 23.6719 6.17188C23.2552 6.17188 22.8386 6.17188 22.4219 6.17188C22.4219 5.7552 22.4219 5.33855 22.4219 4.92188Z" fill="black"/>
<path fill-rule="evenodd" clip-rule="evenodd" d="M12.4219 6.17188C12.4219 6.58855 12.4219 7.0052 12.4219 7.42188C12.0052 7.42188 11.5885 7.42188 11.1719 7.42188C11.1719 7.0052 11.1719 6.58855 11.1719 6.17188C11.5885 6.17188 12.0052 6.17188 12.4219 6.17188Z" fill="black"/>
<path fill-rule="evenodd" clip-rule="evenodd" d="M12.4219 6.17188C12.8385 6.17188 13.2552 6.17188 13.6719 6.17188C14.5052 6.17188 15.3385 6.17188 16.1719 6.17188C16.1719 6.58855 16.1719 7.0052 16.1719 7.42188C15.3385 7.42188 14.5052 7.42188 13.6719 7.42188C13.6719 7.83855 13.6719 8.2552 13.6719 8.67188C13.2552 8.67188 12.8385 8.67188 12.4219 8.67188C12.4219 8.2552 12.4219 7.83855 12.4219 7.42188C12.4219 7.0052 12.4219 6.58855 12.4219 6.17188Z" fill="#7F807F"/>
<path fill-rule="evenodd" clip-rule="evenodd" d="M21.1719 6.17188C21.5886 6.17188 22.0052 6.17188 22.4219 6.17188C22.8386 6.17188 23.2552 6.17188 23.6719 6.17188C23.6719 6.58855 23.6719 7.0052 23.6719 7.42188C22.8386 7.42188 22.0052 7.42188 21.1719 7.42188C21.1719 7.0052 21.1719 6.58855 21.1719 6.17188Z" fill="#3F403F"/>
<path fill-rule="evenodd" clip-rule="evenodd" d="M23.6719 6.17188C24.5052 6.17188 25.3386 6.17188 26.1719 6.17188C26.1719 6.58855 26.1719 7.0052 26.1719 7.42188C25.7552 7.42188 25.3386 7.42188 24.9219 7.42188C24.5052 7.42188 24.0886 7.42188 23.6719 7.42188C23.6719 7.0052 23.6719 6.58855 23.6719 6.17188Z" fill="black"/>
<path fill-rule="evenodd" clip-rule="evenodd" d="M11.1719 7.42188C11.1719 7.83855 11.1719 8.2552 11.1719 8.67188C9.92188 8.67188 8.67188 8.67188 7.42188 8.67188C7.42188 8.2552 7.42188 7.83855 7.42188 7.42188C8.67188 7.42188 9.92188 7.42188 11.1719 7.42188Z" fill="black"/>
<path fill-rule="evenodd" clip-rule="evenodd" d="M17.4219 7.42188C17.8386 7.42188 18.2552 7.42188 18.6719 7.42188C18.6719 7.83855 18.6719 8.2552 18.6719 8.67188C18.2552 8.67188 17.8386 8.67188 17.4219 8.67188C17.4219 8.2552 17.4219 7.83855 17.4219 7.42188Z" fill="#7F807F"/>
<path fill-rule="evenodd" clip-rule="evenodd" d="M21.1719 7.42188C22.0052 7.42188 22.8386 7.42188 23.6719 7.42188C24.0886 7.42188 24.5052 7.42188 24.9219 7.42188C24.9219 7.83855 24.9219 8.2552 24.9219 8.67188C23.6719 8.67188 22.4219 8.67188 21.1719 8.67188C21.1719 8.2552 21.1719 7.83855 21.1719 7.42188Z" fill="#7F807F"/>
<path fill-rule="evenodd" clip-rule="evenodd" d="M24.9219 7.42188C25.3386 7.42188 25.7552 7.42188 26.1719 7.42188C26.1719 7.83855 26.1719 8.2552 26.1719 8.67188C25.7552 8.67188 25.3386 8.67188 24.9219 8.67188C24.9219 8.2552 24.9219 7.83855 24.9219 7.42188Z" fill="#3F403F"/>
<path fill-rule="evenodd" clip-rule="evenodd" d="M26.1719 7.42188C26.5886 7.42188 27.0052 7.42188 27.4219 7.42188C27.4219 7.83855 27.4219 8.2552 27.4219 8.67188C27.0052 8.67188 26.5886 8.67188 26.1719 8.67188C26.1719 8.2552 26.1719 7.83855 26.1719 7.42188Z" fill="black"/>
<path fill-rule="evenodd" clip-rule="evenodd" d="M7.42188 8.67188C7.42188 9.5052 7.42188 10.3385 7.42188 11.1719C7.0052 11.1719 6.58855 11.1719 6.17188 11.1719C6.17188 10.3385 6.17188 9.5052 6.17188 8.67188C6.58855 8.67188 7.0052 8.67188 7.42188 8.67188Z" fill="black"/>
<path fill-rule="evenodd" clip-rule="evenodd" d="M24.9219 8.67188C25.3386 8.67188 25.7552 8.67188 26.1719 8.67188C26.1719 9.08855 26.1719 9.5052 26.1719 9.92188C25.7552 9.92188 25.3386 9.92188 24.9219 9.92188C24.9219 9.5052 24.9219 9.08855 24.9219 8.67188Z" fill="#7F807F"/>
<path fill-rule="evenodd" clip-rule="evenodd" d="M13.6719 11.1719C12.8385 11.1719 12.0052 11.1719 11.1719 11.1719C11.1719 10.7552 11.1719 10.3385 11.1719 9.92188C12.0052 9.92188 12.8385 9.92188 13.6719 9.92188C13.6719 10.3385 13.6719 10.7552 13.6719 11.1719Z" fill="#3F403F"/>
<path fill-rule="evenodd" clip-rule="evenodd" d="M6.17188 11.1719C6.17188 11.5885 6.17188 12.0052 6.17188 12.4219C6.17188 12.8385 6.17188 13.2552 6.17188 13.6719C5.7552 13.6719 5.33855 13.6719 4.92188 13.6719C4.92188 12.8385 4.92188 12.0052 4.92188 11.1719C5.33855 11.1719 5.7552 11.1719 6.17188 11.1719Z" fill="black"/>
<path fill-rule="evenodd" clip-rule="evenodd" d="M6.17188 11.1719C6.58855 11.1719 7.0052 11.1719 7.42188 11.1719C7.83855 11.1719 8.2552 11.1719 8.67188 11.1719C8.67188 11.5885 8.67188 12.0052 8.67188 12.4219C7.83855 12.4219 7.0052 12.4219 6.17188 12.4219C6.17188 12.0052 6.17188 11.5885 6.17188 11.1719Z" fill="#3F403F"/>
<path fill-rule="evenodd" clip-rule="evenodd" d="M11.1719 11.1719C12.0052 11.1719 12.8385 11.1719 13.6719 11.1719C13.6719 11.5885 13.6719 12.0052 13.6719 12.4219C13.6719 12.8385 13.6719 13.2552 13.6719 13.6719C12.4219 13.6719 11.1719 13.6719 9.92188 13.6719C9.92188 13.2552 9.92188 12.8385 9.92188 12.4219C10.3385 12.4219 10.7552 12.4219 11.1719 12.4219C11.1719 12.0052 11.1719 11.5885 11.1719 11.1719Z" fill="#7F807F"/>
<path fill-rule="evenodd" clip-rule="evenodd" d="M17.4219 12.4219C17.0052 12.4219 16.5886 12.4219 16.1719 12.4219C16.1719 12.0052 16.1719 11.5885 16.1719 11.1719C16.5886 11.1719 17.0052 11.1719 17.4219 11.1719C17.4219 11.5885 17.4219 12.0052 17.4219 12.4219Z" fill="#7F807F"/>
<path fill-rule="evenodd" clip-rule="evenodd" d="M19.9219 12.4219C19.5052 12.4219 19.0886 12.4219 18.6719 12.4219C18.6719 12.0052 18.6719 11.5885 18.6719 11.1719C19.0886 11.1719 19.5052 11.1719 19.9219 11.1719C19.9219 11.5885 19.9219 12.0052 19.9219 12.4219Z" fill="#3F403F"/>
<path fill-rule="evenodd" clip-rule="evenodd" d="M29.9219 11.1719C30.3386 11.1719 30.7552 11.1719 31.1719 11.1719C31.1719 11.5885 31.1719 12.0052 31.1719 12.4219C30.7552 12.4219 30.3386 12.4219 29.9219 12.4219C29.9219 12.0052 29.9219 11.5885 29.9219 11.1719Z" fill="black"/>
<path fill-rule="evenodd" clip-rule="evenodd" d="M6.17188 12.4219C7.0052 12.4219 7.83855 12.4219 8.67188 12.4219C8.67188 12.8385 8.67188 13.2552 8.67188 13.6719C7.83855 13.6719 7.0052 13.6719 6.17188 13.6719C6.17188 13.2552 6.17188 12.8385 6.17188 12.4219Z" fill="#7F807F"/>
<path fill-rule="evenodd" clip-rule="evenodd" d="M13.6719 12.4219C14.5052 12.4219 15.3385 12.4219 16.1719 12.4219C16.5886 12.4219 17.0052 12.4219 17.4219 12.4219C17.4219 12.8385 17.4219 13.2552 17.4219 13.6719C18.2552 13.6719 19.0886 13.6719 19.9219 13.6719C19.9219 14.9219 19.9219 16.1719 19.9219 17.4219C19.0886 17.4219 18.2552 17.4219 17.4219 17.4219C17.4219 17.8386 17.4219 18.2552 17.4219 18.6719C14.9219 18.6719 12.4219 18.6719 9.92188 18.6719C9.92188 18.2552 9.92188 17.8386 9.92188 17.4219C9.5052 17.4219 9.08855 17.4219 8.67188 17.4219C8.67188 17.0052 8.67188 16.5886 8.67188 16.1719C9.08855 16.1719 9.5052 16.1719 9.92188 16.1719C9.92188 15.3385 9.92188 14.5052 9.92188 13.6719C11.1719 13.6719 12.4219 13.6719 13.6719 13.6719C13.6719 13.2552 13.6719 12.8385 13.6719 12.4219Z" fill="#3F403F"/>
<path fill-rule="evenodd" clip-rule="evenodd" d="M17.4219 12.4219C17.8386 12.4219 18.2552 12.4219 18.6719 12.4219C19.0886 12.4219 19.5052 12.4219 19.9219 12.4219C19.9219 12.8385 19.9219 13.2552 19.9219 13.6719C19.0886 13.6719 18.2552 13.6719 17.4219 13.6719C17.4219 13.2552 17.4219 12.8385 17.4219 12.4219Z" fill="#7F807F"/>
<path fill-rule="evenodd" clip-rule="evenodd" d="M27.4219 12.4219C27.8386 12.4219 28.2552 12.4219 28.6719 12.4219C28.6719 12.8385 28.6719 13.2552 28.6719 13.6719C28.2552 13.6719 27.8386 13.6719 27.4219 13.6719C27.4219 13.2552 27.4219 12.8385 27.4219 12.4219Z" fill="#7F807F"/>
<path fill-rule="evenodd" clip-rule="evenodd" d="M29.9219 12.4219C30.3386 12.4219 30.7552 12.4219 31.1719 12.4219C31.1719 12.8385 31.1719 13.2552 31.1719 13.6719C30.7552 13.6719 30.3386 13.6719 29.9219 13.6719C29.9219 13.2552 29.9219 12.8385 29.9219 12.4219Z" fill="#7F807F"/>
<path fill-rule="evenodd" clip-rule="evenodd" d="M31.1719 12.4219C31.5886 12.4219 32.0052 12.4219 32.4219 12.4219C32.4219 12.8385 32.4219 13.2552 32.4219 13.6719C32.0052 13.6719 31.5886 13.6719 31.1719 13.6719C31.1719 13.2552 31.1719 12.8385 31.1719 12.4219Z" fill="black"/>
<path fill-rule="evenodd" clip-rule="evenodd" d="M4.92188 13.6719C4.92188 14.9219 4.92188 16.1719 4.92188 17.4219C4.5052 17.4219 4.08855 17.4219 3.67188 17.4219C3.67188 16.1719 3.67188 14.9219 3.67188 13.6719C4.08855 13.6719 4.5052 13.6719 4.92188 13.6719Z" fill="black"/>
<path fill-rule="evenodd" clip-rule="evenodd" d="M4.92188 13.6719C5.33855 13.6719 5.7552 13.6719 6.17188 13.6719C7.0052 13.6719 7.83855 13.6719 8.67188 13.6719C8.67188 14.0885 8.67188 14.5052 8.67188 14.9219C7.83855 14.9219 7.0052 14.9219 6.17188 14.9219C6.17188 15.7552 6.17188 16.5886 6.17188 17.4219C5.7552 17.4219 5.33855 17.4219 4.92188 17.4219C4.92188 16.1719 4.92188 14.9219 4.92188 13.6719Z" fill="#BEBFBE"/>
<path fill-rule="evenodd" clip-rule="evenodd" d="M8.67188 13.6719C9.08855 13.6719 9.5052 13.6719 9.92188 13.6719C9.92188 14.5052 9.92188 15.3385 9.92188 16.1719C9.5052 16.1719 9.08855 16.1719 8.67188 16.1719C8.67188 16.5886 8.67188 17.0052 8.67188 17.4219C9.08855 17.4219 9.5052 17.4219 9.92188 17.4219C9.92188 17.8386 9.92188 18.2552 9.92188 18.6719C12.4219 18.6719 14.9219 18.6719 17.4219 18.6719C17.4219 18.2552 17.4219 17.8386 17.4219 17.4219C18.2552 17.4219 19.0886 17.4219 19.9219 17.4219C19.9219 16.1719 19.9219 14.9219 19.9219 13.6719C20.3386 13.6719 20.7552 13.6719 21.1719 13.6719C21.1719 14.0885 21.1719 14.5052 21.1719 14.9219C21.5886 14.9219 22.0052 14.9219 22.4219 14.9219C23.2552 14.9219 24.0886 14.9219 24.9219 14.9219C25.3386 14.9219 25.7552 14.9219 26.1719 14.9219C26.1719 15.3385 26.1719 15.7552 26.1719 16.1719C25.3386 16.1719 24.5052 16.1719 23.6719 16.1719C23.6719 16.5886 23.6719 17.0052 23.6719 17.4219C24.9219 17.4219 26.1719 17.4219 27.4219 17.4219C27.4219 17.8386 27.4219 18.2552 27.4219 18.6719C28.2552 18.6719 29.0886 18.6719 29.9219 18.6719C29.9219 18.2552 29.9219 17.8386 29.9219 17.4219C30.3386 17.4219 30.7552 17.4219 31.1719 17.4219C32.0052 17.4219 32.8386 17.4219 33.6719 17.4219C34.0886 17.4219 34.5052 17.4219 34.9219 17.4219C34.9219 18.2552 34.9219 19.0886 34.9219 19.9219C34.5052 19.9219 34.0886 19.9219 33.6719 19.9219C33.6719 19.5052 33.6719 19.0886 33.6719 18.6719C33.2552 18.6719 32.8386 18.6719 32.4219 18.6719C32.4219 19.0886 32.4219 19.5052 32.4219 19.9219C31.1719 19.9219 29.9219 19.9219 28.6719 19.9219C28.6719 20.3386 28.6719 20.7552 28.6719 21.1719C26.1719 21.1719 23.6719 21.1719 21.1719 21.1719C21.1719 22.0052 21.1719 22.8386 21.1719 23.6719C20.7552 23.6719 20.3386 23.6719 19.9219 23.6719C19.9219 22.8386 19.9219 22.0052 19.9219 21.1719C19.5052 21.1719 19.0886 21.1719 18.6719 21.1719C18.6719 20.7552 18.6719 20.3386 18.6719 19.9219C18.2552 19.9219 17.8386 19.9219 17.4219 19.9219C17.4219 20.3386 17.4219 20.7552 17.4219 21.1719C15.3385 21.1719 13.2552 21.1719 11.1719 21.1719C11.1719 21.5886 11.1719 22.0052 11.1719 22.4219C10.7552 22.4219 10.3385 22.4219 9.92188 22.4219C9.92188 22.0052 9.92188 21.5886 9.92188 21.1719C9.5052 21.1719 9.08855 21.1719 8.67188 21.1719C8.67188 21.5886 8.67188 22.0052 8.67188 22.4219C7.83855 22.4219 7.0052 22.4219 6.17188 22.4219C6.17188 22.0052 6.17188 21.5886 6.17188 21.1719C5.33855 21.1719 4.5052 21.1719 3.67188 21.1719C3.67188 20.3386 3.67188 19.5052 3.67188 18.6719C4.08855 18.6719 4.5052 18.6719 4.92188 18.6719C5.33855 18.6719 5.7552 18.6719 6.17188 18.6719C6.17188 18.2552 6.17188 17.8386 6.17188 17.4219C6.17188 16.5886 6.17188 15.7552 6.17188 14.9219C7.0052 14.9219 7.83855 14.9219 8.67188 14.9219C8.67188 14.5052 8.67188 14.0885 8.67188 13.6719Z" fill="#7F807F"/>
<path fill-rule="evenodd" clip-rule="evenodd" d="M24.9219 14.9219C24.0886 14.9219 23.2552 14.9219 22.4219 14.9219C22.4219 14.5052 22.4219 14.0885 22.4219 13.6719C23.2552 13.6719 24.0886 13.6719 24.9219 13.6719C24.9219 14.0885 24.9219 14.5052 24.9219 14.9219Z" fill="#3F403F"/>
<path fill-rule="evenodd" clip-rule="evenodd" d="M32.4219 13.6719C32.8386 13.6719 33.2552 13.6719 33.6719 13.6719C33.6719 14.0885 33.6719 14.5052 33.6719 14.9219C34.0886 14.9219 34.5052 14.9219 34.9219 14.9219C34.9219 15.7552 34.9219 16.5886 34.9219 17.4219C34.5052 17.4219 34.0886 17.4219 33.6719 17.4219C33.6719 17.0052 33.6719 16.5886 33.6719 16.1719C33.2552 16.1719 32.8386 16.1719 32.4219 16.1719C32.4219 15.7552 32.4219 15.3385 32.4219 14.9219C32.4219 14.5052 32.4219 14.0885 32.4219 13.6719Z" fill="black"/>
<path fill-rule="evenodd" clip-rule="evenodd" d="M32.4219 14.9219C32.4219 15.3385 32.4219 15.7552 32.4219 16.1719C32.8386 16.1719 33.2552 16.1719 33.6719 16.1719C33.6719 16.5886 33.6719 17.0052 33.6719 17.4219C32.8386 17.4219 32.0052 17.4219 31.1719 17.4219C31.1719 16.5886 31.1719 15.7552 31.1719 14.9219C31.5886 14.9219 32.0052 14.9219 32.4219 14.9219Z" fill="#3F403F"/>
<path fill-rule="evenodd" clip-rule="evenodd" d="M11.1719 16.1719C12.8385 16.1719 14.5052 16.1719 16.1719 16.1719C16.1719 16.5886 16.1719 17.0052 16.1719 17.4219C14.5052 17.4219 12.8385 17.4219 11.1719 17.4219C11.1719 17.0052 11.1719 16.5886 11.1719 16.1719Z" fill="black"/>
<path fill-rule="evenodd" clip-rule="evenodd" d="M27.4219 17.4219C27.4219 17.0052 27.4219 16.5886 27.4219 16.1719C27.8386 16.1719 28.2552 16.1719 28.6719 16.1719C28.6719 16.5886 28.6719 17.0052 28.6719 17.4219C28.2552 17.4219 27.8386 17.4219 27.4219 17.4219Z" fill="#7F807F"/>
<path fill-rule="evenodd" clip-rule="evenodd" d="M3.67188 17.4219C3.67188 17.8386 3.67188 18.2552 3.67188 18.6719C3.67188 19.5052 3.67188 20.3386 3.67188 21.1719C3.67188 21.5886 3.67188 22.0052 3.67188 22.4219C3.67188 22.8386 3.67188 23.2552 3.67188 23.6719C3.67188 24.0886 3.67188 24.5052 3.67188 24.9219C3.67188 25.7552 3.67188 26.5886 3.67188 27.4219C3.67188 27.8386 3.67188 28.2552 3.67188 28.6719C3.2552 28.6719 2.83855 28.6719 2.42188 28.6719C2.42188 24.9219 2.42188 21.1719 2.42188 17.4219C2.83855 17.4219 3.2552 17.4219 3.67188 17.4219Z" fill="black"/>
<path fill-rule="evenodd" clip-rule="evenodd" d="M3.67188 17.4219C4.08855 17.4219 4.5052 17.4219 4.92188 17.4219C4.92188 17.8386 4.92188 18.2552 4.92188 18.6719C4.5052 18.6719 4.08855 18.6719 3.67188 18.6719C3.67188 18.2552 3.67188 17.8386 3.67188 17.4219Z" fill="#BEBFBE"/>
<path fill-rule="evenodd" clip-rule="evenodd" d="M4.92188 17.4219C5.33855 17.4219 5.7552 17.4219 6.17188 17.4219C6.17188 17.8386 6.17188 18.2552 6.17188 18.6719C5.7552 18.6719 5.33855 18.6719 4.92188 18.6719C4.92188 18.2552 4.92188 17.8386 4.92188 17.4219Z" fill="#3F403F"/>
<path fill-rule="evenodd" clip-rule="evenodd" d="M34.9219 17.4219C35.3386 17.4219 35.7552 17.4219 36.1719 17.4219C36.1719 18.2552 36.1719 19.0886 36.1719 19.9219C35.7552 19.9219 35.3386 19.9219 34.9219 19.9219C34.9219 19.0886 34.9219 18.2552 34.9219 17.4219Z" fill="black"/>
<path fill-rule="evenodd" clip-rule="evenodd" d="M27.4219 18.6719C27.4219 19.0886 27.4219 19.5052 27.4219 19.9219C27.0052 19.9219 26.5886 19.9219 26.1719 19.9219C26.1719 19.5052 26.1719 19.0886 26.1719 18.6719C26.5886 18.6719 27.0052 18.6719 27.4219 18.6719Z" fill="#3F403F"/>
<path fill-rule="evenodd" clip-rule="evenodd" d="M33.6719 19.9219C33.2552 19.9219 32.8386 19.9219 32.4219 19.9219C32.4219 19.5052 32.4219 19.0886 32.4219 18.6719C32.8386 18.6719 33.2552 18.6719 33.6719 18.6719C33.6719 19.0886 33.6719 19.5052 33.6719 19.9219Z" fill="#BEBFBE"/>
<path fill-rule="evenodd" clip-rule="evenodd" d="M19.9219 23.6719C19.5052 23.6719 19.0886 23.6719 18.6719 23.6719C18.6719 24.0886 18.6719 24.5052 18.6719 24.9219C17.8386 24.9219 17.0052 24.9219 16.1719 24.9219C16.1719 25.3386 16.1719 25.7552 16.1719 26.1719C16.5886 26.1719 17.0052 26.1719 17.4219 26.1719C17.4219 26.5886 17.4219 27.0052 17.4219 27.4219C17.0052 27.4219 16.5886 27.4219 16.1719 27.4219C16.1719 27.8386 16.1719 28.2552 16.1719 28.6719C15.3385 28.6719 14.5052 28.6719 13.6719 28.6719C13.6719 28.2552 13.6719 27.8386 13.6719 27.4219C12.8385 27.4219 12.0052 27.4219 11.1719 27.4219C11.1719 27.0052 11.1719 26.5886 11.1719 26.1719C9.5052 26.1719 7.83855 26.1719 6.17188 26.1719C6.17188 25.7552 6.17188 25.3386 6.17188 24.9219C5.33855 24.9219 4.5052 24.9219 3.67188 24.9219C3.67188 24.5052 3.67188 24.0886 3.67188 23.6719C4.5052 23.6719 5.33855 23.6719 6.17188 23.6719C6.17188 23.2552 6.17188 22.8386 6.17188 22.4219C7.0052 22.4219 7.83855 22.4219 8.67188 22.4219C8.67188 22.0052 8.67188 21.5886 8.67188 21.1719C9.08855 21.1719 9.5052 21.1719 9.92188 21.1719C9.92188 21.5886 9.92188 22.0052 9.92188 22.4219C10.3385 22.4219 10.7552 22.4219 11.1719 22.4219C11.1719 22.0052 11.1719 21.5886 11.1719 21.1719C13.2552 21.1719 15.3385 21.1719 17.4219 21.1719C17.4219 20.7552 17.4219 20.3386 17.4219 19.9219C17.8386 19.9219 18.2552 19.9219 18.6719 19.9219C18.6719 20.3386 18.6719 20.7552 18.6719 21.1719C19.0886 21.1719 19.5052 21.1719 19.9219 21.1719C19.9219 22.0052 19.9219 22.8386 19.9219 23.6719Z" fill="#BEBFBE"/>
<path fill-rule="evenodd" clip-rule="evenodd" d="M32.4219 19.9219C32.8386 19.9219 33.2552 19.9219 33.6719 19.9219C33.6719 20.7552 33.6719 21.5886 33.6719 22.4219C33.2552 22.4219 32.8386 22.4219 32.4219 22.4219C30.7552 22.4219 29.0886 22.4219 27.4219 22.4219C27.4219 22.8386 27.4219 23.2552 27.4219 23.6719C27.8386 23.6719 28.2552 23.6719 28.6719 23.6719C28.6719 24.0886 28.6719 24.5052 28.6719 24.9219C29.0886 24.9219 29.5052 24.9219 29.9219 24.9219C29.9219 25.3386 29.9219 25.7552 29.9219 26.1719C30.3386 26.1719 30.7552 26.1719 31.1719 26.1719C31.1719 26.5886 31.1719 27.0052 31.1719 27.4219C31.5886 27.4219 32.0052 27.4219 32.4219 27.4219C32.4219 27.8386 32.4219 28.2552 32.4219 28.6719C31.5886 28.6719 30.7552 28.6719 29.9219 28.6719C29.9219 29.0886 29.9219 29.5052 29.9219 29.9219C29.5052 29.9219 29.0886 29.9219 28.6719 29.9219C28.6719 30.3386 28.6719 30.7552 28.6719 31.1719C28.2552 31.1719 27.8386 31.1719 27.4219 31.1719C27.4219 30.3386 27.4219 29.5052 27.4219 28.6719C25.3386 28.6719 23.2552 28.6719 21.1719 28.6719C21.1719 28.2552 21.1719 27.8386 21.1719 27.4219C20.7552 27.4219 20.3386 27.4219 19.9219 27.4219C19.9219 26.1719 19.9219 24.9219 19.9219 23.6719C20.3386 23.6719 20.7552 23.6719 21.1719 23.6719C21.1719 22.8386 21.1719 22.0052 21.1719 21.1719C23.6719 21.1719 26.1719 21.1719 28.6719 21.1719C28.6719 20.7552 28.6719 20.3386 28.6719 19.9219C29.9219 19.9219 31.1719 19.9219 32.4219 19.9219Z" fill="#3F403F"/>
<path fill-rule="evenodd" clip-rule="evenodd" d="M33.6719 19.9219C34.0886 19.9219 34.5052 19.9219 34.9219 19.9219C34.9219 20.7552 34.9219 21.5886 34.9219 22.4219C34.5052 22.4219 34.0886 22.4219 33.6719 22.4219C33.6719 21.5886 33.6719 20.7552 33.6719 19.9219Z" fill="black"/>
<path fill-rule="evenodd" clip-rule="evenodd" d="M3.67188 21.1719C4.5052 21.1719 5.33855 21.1719 6.17188 21.1719C6.17188 21.5886 6.17188 22.0052 6.17188 22.4219C5.33855 22.4219 4.5052 22.4219 3.67188 22.4219C3.67188 22.0052 3.67188 21.5886 3.67188 21.1719Z" fill="#3F403F"/>
<path fill-rule="evenodd" clip-rule="evenodd" d="M3.67188 22.4219C4.5052 22.4219 5.33855 22.4219 6.17188 22.4219C6.17188 22.8386 6.17188 23.2552 6.17188 23.6719C5.33855 23.6719 4.5052 23.6719 3.67188 23.6719C3.67188 23.2552 3.67188 22.8386 3.67188 22.4219Z" fill="#7F807F"/>
<path fill-rule="evenodd" clip-rule="evenodd" d="M32.4219 22.4219C32.4219 24.0886 32.4219 25.7552 32.4219 27.4219C32.0052 27.4219 31.5886 27.4219 31.1719 27.4219C31.1719 27.0052 31.1719 26.5886 31.1719 26.1719C30.7552 26.1719 30.3386 26.1719 29.9219 26.1719C29.9219 25.7552 29.9219 25.3386 29.9219 24.9219C29.5052 24.9219 29.0886 24.9219 28.6719 24.9219C28.6719 24.5052 28.6719 24.0886 28.6719 23.6719C28.2552 23.6719 27.8386 23.6719 27.4219 23.6719C27.4219 23.2552 27.4219 22.8386 27.4219 22.4219C29.0886 22.4219 30.7552 22.4219 32.4219 22.4219Z" fill="#7F807F"/>
<path fill-rule="evenodd" clip-rule="evenodd" d="M32.4219 22.4219C32.8386 22.4219 33.2552 22.4219 33.6719 22.4219C33.6719 24.5052 33.6719 26.5886 33.6719 28.6719C33.2552 28.6719 32.8386 28.6719 32.4219 28.6719C32.4219 28.2552 32.4219 27.8386 32.4219 27.4219C32.4219 25.7552 32.4219 24.0886 32.4219 22.4219Z" fill="black"/>
<path fill-rule="evenodd" clip-rule="evenodd" d="M19.9219 23.6719C19.9219 24.9219 19.9219 26.1719 19.9219 27.4219C20.3386 27.4219 20.7552 27.4219 21.1719 27.4219C21.1719 27.8386 21.1719 28.2552 21.1719 28.6719C23.2552 28.6719 25.3386 28.6719 27.4219 28.6719C27.4219 29.5052 27.4219 30.3386 27.4219 31.1719C27.0052 31.1719 26.5886 31.1719 26.1719 31.1719C26.1719 31.5886 26.1719 32.0052 26.1719 32.4219C23.6719 32.4219 21.1719 32.4219 18.6719 32.4219C18.6719 32.0052 18.6719 31.5886 18.6719 31.1719C17.8386 31.1719 17.0052 31.1719 16.1719 31.1719C16.1719 30.7552 16.1719 30.3386 16.1719 29.9219C15.3385 29.9219 14.5052 29.9219 13.6719 29.9219C13.6719 29.5052 13.6719 29.0886 13.6719 28.6719C14.5052 28.6719 15.3385 28.6719 16.1719 28.6719C16.1719 28.2552 16.1719 27.8386 16.1719 27.4219C16.5886 27.4219 17.0052 27.4219 17.4219 27.4219C17.4219 27.0052 17.4219 26.5886 17.4219 26.1719C17.0052 26.1719 16.5886 26.1719 16.1719 26.1719C16.1719 25.7552 16.1719 25.3386 16.1719 24.9219C17.0052 24.9219 17.8386 24.9219 18.6719 24.9219C18.6719 24.5052 18.6719 24.0886 18.6719 23.6719C19.0886 23.6719 19.5052 23.6719 19.9219 23.6719Z" fill="#7F807F"/>
<path fill-rule="evenodd" clip-rule="evenodd" d="M3.67188 24.9219C4.5052 24.9219 5.33855 24.9219 6.17188 24.9219C6.17188 25.3386 6.17188 25.7552 6.17188 26.1719C7.83855 26.1719 9.5052 26.1719 11.1719 26.1719C11.1719 26.5886 11.1719 27.0052 11.1719 27.4219C10.3385 27.4219 9.5052 27.4219 8.67188 27.4219C7.0052 27.4219 5.33855 27.4219 3.67188 27.4219C3.67188 26.5886 3.67188 25.7552 3.67188 24.9219Z" fill="#7F807F"/>
<path fill-rule="evenodd" clip-rule="evenodd" d="M12.4219 24.9219C12.8385 24.9219 13.2552 24.9219 13.6719 24.9219C13.6719 25.3386 13.6719 25.7552 13.6719 26.1719C13.2552 26.1719 12.8385 26.1719 12.4219 26.1719C12.4219 25.7552 12.4219 25.3386 12.4219 24.9219Z" fill="#7F807F"/>
<path fill-rule="evenodd" clip-rule="evenodd" d="M22.4219 26.1719C23.2552 26.1719 24.0886 26.1719 24.9219 26.1719C24.9219 26.5886 24.9219 27.0052 24.9219 27.4219C24.0886 27.4219 23.2552 27.4219 22.4219 27.4219C22.4219 27.0052 22.4219 26.5886 22.4219 26.1719Z" fill="black"/>
<path fill-rule="evenodd" clip-rule="evenodd" d="M3.67188 27.4219C5.33855 27.4219 7.0052 27.4219 8.67188 27.4219C8.67188 27.8386 8.67188 28.2552 8.67188 28.6719C8.2552 28.6719 7.83855 28.6719 7.42188 28.6719C7.42188 29.0886 7.42188 29.5052 7.42188 29.9219C6.58855 29.9219 5.7552 29.9219 4.92188 29.9219C4.92188 29.5052 4.92188 29.0886 4.92188 28.6719C4.5052 28.6719 4.08855 28.6719 3.67188 28.6719C3.67188 28.2552 3.67188 27.8386 3.67188 27.4219Z" fill="#3F403F"/>
<path fill-rule="evenodd" clip-rule="evenodd" d="M8.67188 27.4219C9.5052 27.4219 10.3385 27.4219 11.1719 27.4219C11.1719 27.8386 11.1719 28.2552 11.1719 28.6719C10.7552 28.6719 10.3385 28.6719 9.92188 28.6719C9.92188 29.0886 9.92188 29.5052 9.92188 29.9219C9.08855 29.9219 8.2552 29.9219 7.42188 29.9219C7.42188 29.5052 7.42188 29.0886 7.42188 28.6719C7.83855 28.6719 8.2552 28.6719 8.67188 28.6719C8.67188 28.2552 8.67188 27.8386 8.67188 27.4219Z" fill="black"/>
<path fill-rule="evenodd" clip-rule="evenodd" d="M11.1719 27.4219C12.0052 27.4219 12.8385 27.4219 13.6719 27.4219C13.6719 27.8386 13.6719 28.2552 13.6719 28.6719C12.8385 28.6719 12.0052 28.6719 11.1719 28.6719C11.1719 28.2552 11.1719 27.8386 11.1719 27.4219Z" fill="#7F807F"/>
<path fill-rule="evenodd" clip-rule="evenodd" d="M3.67188 28.6719C4.08855 28.6719 4.5052 28.6719 4.92188 28.6719C4.92188 29.0886 4.92188 29.5052 4.92188 29.9219C4.5052 29.9219 4.08855 29.9219 3.67188 29.9219C3.67188 29.5052 3.67188 29.0886 3.67188 28.6719Z" fill="black"/>
<path fill-rule="evenodd" clip-rule="evenodd" d="M11.1719 28.6719C12.0052 28.6719 12.8385 28.6719 13.6719 28.6719C13.6719 29.0886 13.6719 29.5052 13.6719 29.9219C14.5052 29.9219 15.3385 29.9219 16.1719 29.9219C16.1719 30.3386 16.1719 30.7552 16.1719 31.1719C17.0052 31.1719 17.8386 31.1719 18.6719 31.1719C18.6719 31.5886 18.6719 32.0052 18.6719 32.4219C21.1719 32.4219 23.6719 32.4219 26.1719 32.4219C26.1719 32.8386 26.1719 33.2552 26.1719 33.6719C24.5052 33.6719 22.8386 33.6719 21.1719 33.6719C21.1719 34.0886 21.1719 34.5052 21.1719 34.9219C20.7552 34.9219 20.3386 34.9219 19.9219 34.9219C19.9219 35.3386 19.9219 35.7552 19.9219 36.1719C19.0886 36.1719 18.2552 36.1719 17.4219 36.1719C17.4219 35.7552 17.4219 35.3386 17.4219 34.9219C17.0052 34.9219 16.5886 34.9219 16.1719 34.9219C16.1719 35.3386 16.1719 35.7552 16.1719 36.1719C15.3385 36.1719 14.5052 36.1719 13.6719 36.1719C13.6719 35.7552 13.6719 35.3386 13.6719 34.9219C13.2552 34.9219 12.8385 34.9219 12.4219 34.9219C12.4219 34.5052 12.4219 34.0886 12.4219 33.6719C12.0052 33.6719 11.5885 33.6719 11.1719 33.6719C11.1719 33.2552 11.1719 32.8386 11.1719 32.4219C11.1719 32.0052 11.1719 31.5886 11.1719 31.1719C10.7552 31.1719 10.3385 31.1719 9.92188 31.1719C9.08855 31.1719 8.2552 31.1719 7.42188 31.1719C7.42188 30.7552 7.42188 30.3386 7.42188 29.9219C8.2552 29.9219 9.08855 29.9219 9.92188 29.9219C9.92188 29.5052 9.92188 29.0886 9.92188 28.6719C10.3385 28.6719 10.7552 28.6719 11.1719 28.6719Z" fill="#3F403F"/>
<path fill-rule="evenodd" clip-rule="evenodd" d="M32.4219 28.6719C32.4219 29.0886 32.4219 29.5052 32.4219 29.9219C31.5886 29.9219 30.7552 29.9219 29.9219 29.9219C29.9219 29.5052 29.9219 29.0886 29.9219 28.6719C30.7552 28.6719 31.5886 28.6719 32.4219 28.6719Z" fill="black"/>
<path fill-rule="evenodd" clip-rule="evenodd" d="M4.92188 29.9219C5.7552 29.9219 6.58855 29.9219 7.42188 29.9219C7.42188 30.3386 7.42188 30.7552 7.42188 31.1719C6.58855 31.1719 5.7552 31.1719 4.92188 31.1719C4.92188 30.7552 4.92188 30.3386 4.92188 29.9219Z" fill="black"/>
<path fill-rule="evenodd" clip-rule="evenodd" d="M19.9219 29.9219C21.5886 29.9219 23.2552 29.9219 24.9219 29.9219C24.9219 30.3386 24.9219 30.7552 24.9219 31.1719C23.2552 31.1719 21.5886 31.1719 19.9219 31.1719C19.9219 30.7552 19.9219 30.3386 19.9219 29.9219Z" fill="#BEBFBE"/>
<path fill-rule="evenodd" clip-rule="evenodd" d="M29.9219 29.9219C29.9219 30.3386 29.9219 30.7552 29.9219 31.1719C29.5052 31.1719 29.0886 31.1719 28.6719 31.1719C28.6719 30.7552 28.6719 30.3386 28.6719 29.9219C29.0886 29.9219 29.5052 29.9219 29.9219 29.9219Z" fill="black"/>
<path fill-rule="evenodd" clip-rule="evenodd" d="M7.42188 31.1719C8.2552 31.1719 9.08855 31.1719 9.92188 31.1719C9.92188 31.5886 9.92188 32.0052 9.92188 32.4219C9.08855 32.4219 8.2552 32.4219 7.42188 32.4219C7.42188 32.0052 7.42188 31.5886 7.42188 31.1719Z" fill="black"/>
<path fill-rule="evenodd" clip-rule="evenodd" d="M9.92188 31.1719C10.3385 31.1719 10.7552 31.1719 11.1719 31.1719C11.1719 31.5886 11.1719 32.0052 11.1719 32.4219C10.7552 32.4219 10.3385 32.4219 9.92188 32.4219C9.92188 32.0052 9.92188 31.5886 9.92188 31.1719Z" fill="#7F807F"/>
<path fill-rule="evenodd" clip-rule="evenodd" d="M27.4219 31.1719C27.4219 31.5886 27.4219 32.0052 27.4219 32.4219C27.0052 32.4219 26.5886 32.4219 26.1719 32.4219C26.1719 32.0052 26.1719 31.5886 26.1719 31.1719C26.5886 31.1719 27.0052 31.1719 27.4219 31.1719Z" fill="#3F403F"/>
<path fill-rule="evenodd" clip-rule="evenodd" d="M27.4219 31.1719C27.8386 31.1719 28.2552 31.1719 28.6719 31.1719C28.6719 31.5886 28.6719 32.0052 28.6719 32.4219C28.2552 32.4219 27.8386 32.4219 27.4219 32.4219C27.4219 32.0052 27.4219 31.5886 27.4219 31.1719Z" fill="black"/>
<path fill-rule="evenodd" clip-rule="evenodd" d="M9.92188 32.4219C10.3385 32.4219 10.7552 32.4219 11.1719 32.4219C11.1719 32.8386 11.1719 33.2552 11.1719 33.6719C10.7552 33.6719 10.3385 33.6719 9.92188 33.6719C9.92188 33.2552 9.92188 32.8386 9.92188 32.4219Z" fill="black"/>
<path fill-rule="evenodd" clip-rule="evenodd" d="M18.6719 32.4219C18.6719 32.8386 18.6719 33.2552 18.6719 33.6719C18.2552 33.6719 17.8386 33.6719 17.4219 33.6719C17.4219 33.2552 17.4219 32.8386 17.4219 32.4219C17.8386 32.4219 18.2552 32.4219 18.6719 32.4219Z" fill="black"/>
<path fill-rule="evenodd" clip-rule="evenodd" d="M26.1719 32.4219C26.5886 32.4219 27.0052 32.4219 27.4219 32.4219C27.4219 32.8386 27.4219 33.2552 27.4219 33.6719C27.0052 33.6719 26.5886 33.6719 26.1719 33.6719C26.1719 33.2552 26.1719 32.8386 26.1719 32.4219Z" fill="black"/>
<path fill-rule="evenodd" clip-rule="evenodd" d="M11.1719 33.6719C11.5885 33.6719 12.0052 33.6719 12.4219 33.6719C12.4219 34.0886 12.4219 34.5052 12.4219 34.9219C12.0052 34.9219 11.5885 34.9219 11.1719 34.9219C11.1719 34.5052 11.1719 34.0886 11.1719 33.6719Z" fill="black"/>
<path fill-rule="evenodd" clip-rule="evenodd" d="M26.1719 33.6719C26.1719 34.0886 26.1719 34.5052 26.1719 34.9219C24.5052 34.9219 22.8386 34.9219 21.1719 34.9219C21.1719 34.5052 21.1719 34.0886 21.1719 33.6719C22.8386 33.6719 24.5052 33.6719 26.1719 33.6719Z" fill="black"/>
<path fill-rule="evenodd" clip-rule="evenodd" d="M12.4219 34.9219C12.8385 34.9219 13.2552 34.9219 13.6719 34.9219C13.6719 35.3386 13.6719 35.7552 13.6719 36.1719C13.2552 36.1719 12.8385 36.1719 12.4219 36.1719C12.4219 35.7552 12.4219 35.3386 12.4219 34.9219Z" fill="black"/>
<path fill-rule="evenodd" clip-rule="evenodd" d="M19.9219 36.1719C19.9219 36.5886 19.9219 37.0052 19.9219 37.4219C17.8386 37.4219 15.7552 37.4219 13.6719 37.4219C13.6719 37.0052 13.6719 36.5886 13.6719 36.1719C14.5052 36.1719 15.3385 36.1719 16.1719 36.1719C16.1719 35.7552 16.1719 35.3386 16.1719 34.9219C16.5886 34.9219 17.0052 34.9219 17.4219 34.9219C17.4219 35.3386 17.4219 35.7552 17.4219 36.1719C18.2552 36.1719 19.0886 36.1719 19.9219 36.1719Z" fill="black"/>
<path fill-rule="evenodd" clip-rule="evenodd" d="M21.1719 34.9219C21.1719 35.3386 21.1719 35.7552 21.1719 36.1719C20.7552 36.1719 20.3386 36.1719 19.9219 36.1719C19.9219 35.7552 19.9219 35.3386 19.9219 34.9219C20.3386 34.9219 20.7552 34.9219 21.1719 34.9219Z" fill="black"/>
</svg>
