<svg width="27" height="54" viewBox="0 0 27 54" fill="none" xmlns="http://www.w3.org/2000/svg">
<path d="M1.82431 5.45343C2.42634 5.45343 3.02836 5.45343 3.64863 5.45343C3.64863 7.25306 3.64863 9.05269 3.64863 10.9069C4.25066 10.9069 4.85269 10.9069 5.47296 10.9069C5.47296 9.7071 5.47296 8.50735 5.47296 7.27124C6.07499 7.27124 6.67701 7.27124 7.29728 7.27124C7.29728 6.67136 7.29728 6.07149 7.29728 5.45343C11.3911 5.45343 15.4849 5.45343 19.7027 5.45343C19.7027 7.19307 19.7027 8.93272 19.7027 10.7251C19.1609 10.7251 18.619 10.7251 18.0608 10.7251C18.0608 10.1852 18.0608 9.6453 18.0608 9.08905C16.7965 9.08905 15.5323 9.08905 14.2297 9.08905C14.2297 9.68893 14.2297 10.2888 14.2297 10.9069C15.4338 10.9069 16.6378 10.9069 17.8784 10.9069C17.8784 12.1066 17.8784 13.3064 17.8784 14.5425C18.4804 14.5425 19.0824 14.5425 19.7027 14.5425C19.7027 15.0824 19.7027 15.6223 19.7027 16.1785C20.3047 16.1785 20.9067 16.1785 21.527 16.1785C21.527 15.5786 21.527 14.9787 21.527 14.3607C20.9852 14.3607 20.4434 14.3607 19.8851 14.3607C19.8851 13.2209 19.8851 12.0812 19.8851 10.9069C21.029 10.9069 22.1728 10.9069 23.3513 10.9069C23.3513 9.16721 23.3513 7.42757 23.3513 5.63521C23.8932 5.63521 24.435 5.63521 24.9932 5.63521C24.9932 9.1145 24.9932 12.5938 24.9932 16.1785C24.4514 16.1785 23.9096 16.1785 23.3513 16.1785C23.3513 17.3783 23.3513 18.578 23.3513 19.8141C22.7493 19.8141 22.1473 19.8141 21.527 19.8141C21.527 20.354 21.527 20.8939 21.527 21.4501C20.925 21.4501 20.323 21.4501 19.7027 21.4501C19.7027 22.05 19.7027 22.6499 19.7027 23.268C18.4986 23.268 17.2946 23.268 16.054 23.268C16.054 23.8678 16.054 24.4677 16.054 25.0858C14.3082 25.0858 12.5623 25.0858 10.7635 25.0858C10.7635 24.4859 10.7635 23.886 10.7635 23.268C9.61965 23.268 8.4758 23.268 7.29728 23.268C7.29728 22.6681 7.29728 22.0682 7.29728 21.4501C6.69526 21.4501 6.09323 21.4501 5.47296 21.4501C5.47296 20.8503 5.47296 20.2504 5.47296 19.6323C4.87093 19.6323 4.26891 19.6323 3.64863 19.6323C3.64863 18.4926 3.64863 17.3528 3.64863 16.1785C3.04661 16.1785 2.44458 16.1785 1.82431 16.1785C1.82431 12.6392 1.82431 9.09996 1.82431 5.45343Z" fill="#102437"/>
<path d="M7.29728 23.268C8.44114 23.268 9.58499 23.268 10.7635 23.268C10.7635 23.8678 10.7635 24.4677 10.7635 25.0858C13.7134 25.0858 16.6634 25.0858 19.7027 25.0858C19.7027 25.6856 19.7027 26.2855 19.7027 26.9036C20.3047 26.9036 20.9067 26.9036 21.527 26.9036C21.527 27.5035 21.527 28.1033 21.527 28.7214C22.0688 28.7214 22.6107 28.7214 23.1689 28.7214C23.4006 30.482 23.3639 32.2194 23.3513 33.993C22.1473 33.993 20.9432 33.993 19.7027 33.993C19.7027 37.5323 19.7027 41.0716 19.7027 44.7181C19.1609 44.7181 18.619 44.7181 18.0608 44.7181C18.0608 45.258 18.0608 45.7979 18.0608 46.3541C18.6026 46.3541 19.1444 46.3541 19.7027 46.3541C19.7027 46.954 19.7027 47.5539 19.7027 48.1719C20.3047 48.1719 20.9067 48.1719 21.527 48.1719C21.527 49.3717 21.527 50.5715 21.527 51.8076C19.7811 51.8076 18.0353 51.8076 16.2365 51.8076C16.2365 50.6078 16.2365 49.4081 16.2365 48.1719C16.7783 48.1719 17.3201 48.1719 17.8784 48.1719C17.8784 47.6321 17.8784 47.0922 17.8784 46.5359C17.3365 46.5359 16.7947 46.5359 16.2365 46.5359C16.2365 45.3362 16.2365 44.1364 16.2365 42.9003C15.6344 42.9003 15.0324 42.9003 14.4121 42.9003C14.4121 42.3004 14.4121 41.7005 14.4121 41.0825C13.8101 41.0825 13.2081 41.0825 12.5878 41.0825C12.5878 41.6824 12.5878 42.2822 12.5878 42.9003C11.3838 42.9003 10.1797 42.9003 8.93918 42.9003C9.02948 43.8001 9.02948 43.8001 9.12161 44.7181C8.51958 44.7181 7.91755 44.7181 7.29728 44.7181C7.29728 41.1788 7.29728 37.6396 7.29728 33.993C8.50134 33.993 9.70539 33.993 10.9459 33.993C10.9459 34.5329 10.9459 35.0728 10.9459 35.6291C12.6316 35.6291 14.3173 35.6291 16.054 35.6291C16.054 35.0892 16.054 34.5493 16.054 33.993C14.9102 33.993 13.7663 33.993 12.5878 33.993C12.5878 33.3932 12.5878 32.7933 12.5878 32.1752C13.7317 32.1752 14.8755 32.1752 16.054 32.1752C16.054 31.6353 16.054 31.0954 16.054 30.5392C14.3684 30.5392 12.6827 30.5392 10.9459 30.5392C10.9459 31.0791 10.9459 31.619 10.9459 32.1752C9.13985 32.1752 7.33377 32.1752 5.47296 32.1752C5.47296 32.7751 5.47296 33.375 5.47296 33.993C4.87093 33.993 4.26891 33.993 3.64863 33.993C3.64863 34.5929 3.64863 35.1928 3.64863 35.8108C4.25066 35.8108 4.85269 35.8108 5.47296 35.8108C5.47296 36.9506 5.47296 38.0904 5.47296 39.2647C4.26891 39.2647 3.06485 39.2647 1.82431 39.2647C1.82431 36.3253 1.82431 33.3859 1.82431 30.3574C2.42634 30.3574 3.02836 30.3574 3.64863 30.3574C3.64863 29.2176 3.64863 28.0779 3.64863 26.9036C4.25066 26.9036 4.85269 26.9036 5.47296 26.9036C5.47296 26.3037 5.47296 25.7038 5.47296 25.0858C6.07499 25.0858 6.67701 25.0858 7.29728 25.0858C7.29728 24.4859 7.29728 23.886 7.29728 23.268Z" fill="#FDFDFD"/>
<path d="M10.7635 30.3574C12.5696 30.3574 14.3757 30.3574 16.2365 30.3574C16.2365 30.9573 16.2365 31.5572 16.2365 32.1752C17.3803 32.1752 18.5242 32.1752 19.7027 32.1752C19.7027 36.3144 19.7027 40.4535 19.7027 44.7181C19.1609 44.7181 18.6191 44.7181 18.0608 44.7181C18.0608 45.258 18.0608 45.7979 18.0608 46.3541C18.6026 46.3541 19.1445 46.3541 19.7027 46.3541C19.7027 46.954 19.7027 47.5539 19.7027 48.1719C20.3047 48.1719 20.9068 48.1719 21.527 48.1719C21.527 49.3717 21.527 50.5714 21.527 51.8076C19.7812 51.8076 18.0353 51.8076 16.2365 51.8076C16.2365 50.6078 16.2365 49.408 16.2365 48.1719C16.7783 48.1719 17.3201 48.1719 17.8784 48.1719C17.8784 47.632 17.8784 47.0922 17.8784 46.5359C17.3366 46.5359 16.7947 46.5359 16.2365 46.5359C16.2365 45.3362 16.2365 44.1364 16.2365 42.9003C15.6345 42.9003 15.0324 42.9003 14.4122 42.9003C14.4122 42.3004 14.4122 41.7005 14.4122 41.0825C13.8101 41.0825 13.2081 41.0825 12.5878 41.0825C12.5878 41.6824 12.5878 42.2822 12.5878 42.9003C11.3838 42.9003 10.1797 42.9003 8.93919 42.9003C8.9994 43.5002 9.0596 44.1 9.12163 44.7181C8.5196 44.7181 7.91757 44.7181 7.2973 44.7181C7.2973 41.1788 7.2973 37.6395 7.2973 33.993C8.50136 33.993 9.70541 33.993 10.946 33.993C10.946 34.5329 10.946 35.0728 10.946 35.6291C12.6316 35.6291 14.3173 35.6291 16.0541 35.6291C16.0541 35.0892 16.0541 34.5493 16.0541 33.993C14.9102 33.993 13.7664 33.993 12.5878 33.993C12.5878 33.3931 12.5878 32.7933 12.5878 32.1752C13.7317 32.1752 14.8755 32.1752 16.0541 32.1752C16.0541 31.6353 16.0541 31.0954 16.0541 30.5392C14.3684 30.5392 12.6827 30.5392 10.946 30.5392C10.946 31.0791 10.946 31.619 10.946 32.1752C10.8857 32.1752 10.8255 32.1752 10.7635 32.1752C10.7635 31.5753 10.7635 30.9755 10.7635 30.3574Z" fill="#FDFEFD"/>
<path d="M7.2973 1.99959C11.3911 1.99959 15.4849 1.99959 19.7027 1.99959C19.7027 2.59946 19.7027 3.19934 19.7027 3.8174C20.3047 3.8174 20.9068 3.8174 21.527 3.8174C21.527 4.35729 21.527 4.89718 21.527 5.45343C22.1291 5.45343 22.7311 5.45343 23.3514 5.45343C23.3514 7.25306 23.3514 9.05269 23.3514 10.9069C22.2075 10.9069 21.0637 10.9069 19.8851 10.9069C19.8851 12.0466 19.8851 13.1864 19.8851 14.3607C20.427 14.3607 20.9688 14.3607 21.527 14.3607C21.527 14.9606 21.527 15.5604 21.527 16.1785C20.925 16.1785 20.323 16.1785 19.7027 16.1785C19.7027 15.6386 19.7027 15.0987 19.7027 14.5425C19.1007 14.5425 18.4987 14.5425 17.8784 14.5425C17.8784 13.3427 17.8784 12.143 17.8784 10.9069C16.6743 10.9069 15.4703 10.9069 14.2297 10.9069C14.2297 10.307 14.2297 9.7071 14.2297 9.08904C15.494 9.08904 16.7582 9.08904 18.0608 9.08904C18.0608 9.62893 18.0608 10.1688 18.0608 10.7251C18.6026 10.7251 19.1445 10.7251 19.7027 10.7251C19.7027 8.98543 19.7027 7.24578 19.7027 5.45343C15.6089 5.45343 11.5151 5.45343 7.2973 5.45343C7.2973 6.0533 7.2973 6.65318 7.2973 7.27123C6.69527 7.27123 6.09325 7.27123 5.47298 7.27123C5.47298 8.47099 5.47298 9.67074 5.47298 10.9069C4.87095 10.9069 4.26892 10.9069 3.64865 10.9069C3.64865 9.10722 3.64865 7.30759 3.64865 5.45343C4.25068 5.45343 4.85271 5.45343 5.47298 5.45343C5.47298 4.91354 5.47298 4.37365 5.47298 3.8174C6.075 3.8174 6.67703 3.8174 7.2973 3.8174C7.2973 3.21752 7.2973 2.61764 7.2973 1.99959Z" fill="#FCFCFD"/>
<path d="M0 30.3574C0.602027 30.3574 1.20405 30.3574 1.82432 30.3574C1.82432 33.2968 1.82432 36.2362 1.82432 39.2647C3.02838 39.2647 4.23243 39.2647 5.47297 39.2647C5.47297 38.1249 5.47297 36.9851 5.47297 35.8108C4.87095 35.8108 4.26892 35.8108 3.64865 35.8108C3.64865 35.211 3.64865 34.6111 3.64865 33.993C4.25068 33.993 4.8527 33.993 5.47297 33.993C5.47297 33.3931 5.47297 32.7933 5.47297 32.1752C7.27905 32.1752 9.08513 32.1752 10.9459 32.1752C10.9459 31.6353 10.9459 31.0954 10.9459 30.5392C12.6316 30.5392 14.3173 30.5392 16.0541 30.5392C16.0541 31.0791 16.0541 31.619 16.0541 32.1752C14.9102 32.1752 13.7664 32.1752 12.5878 32.1752C12.5878 32.7751 12.5878 33.375 12.5878 33.993C13.7317 33.993 14.8755 33.993 16.0541 33.993C16.0541 34.5329 16.0541 35.0728 16.0541 35.6291C14.3684 35.6291 12.6827 35.6291 10.9459 35.6291C10.9459 35.0892 10.9459 34.5493 10.9459 33.993C9.74189 33.993 8.53784 33.993 7.2973 33.993C7.2973 37.5323 7.2973 41.0716 7.2973 44.7181C7.83912 44.7181 8.38095 44.7181 8.93919 44.7181C8.93919 45.258 8.93919 45.7979 8.93919 46.3541C8.39736 46.3541 7.85554 46.3541 7.2973 46.3541C7.2973 46.954 7.2973 47.5539 7.2973 48.1719C6.69527 48.1719 6.09324 48.1719 5.47297 48.1719C5.47297 48.7718 5.47297 49.3717 5.47297 49.9897C4.87095 49.9897 4.26892 49.9897 3.64865 49.9897C3.64865 49.3899 3.64865 48.79 3.64865 48.1719C4.19047 48.1719 4.7323 48.1719 5.29054 48.1719C5.29054 45.8924 5.29054 43.6129 5.29054 41.2643C4.14669 41.2643 3.00284 41.2643 1.82432 41.2643C1.82432 40.6644 1.82432 40.0645 1.82432 39.4465C1.2223 39.4465 0.62027 39.4465 0 39.4465C0 36.4471 0 33.4477 0 30.3574Z" fill="#75A7B9"/>
<path d="M23.3514 26.9036C23.9534 26.9036 24.5554 26.9036 25.1757 26.9036C25.1757 28.0433 25.1757 29.1831 25.1757 30.3574C25.7777 30.3574 26.3797 30.3574 27 30.3574C27 33.3568 27 36.3562 27 39.4464C26.398 39.4464 25.796 39.4464 25.1757 39.4464C25.1757 39.9863 25.1757 40.5262 25.1757 41.0825C23.9716 41.0825 22.7676 41.0825 21.527 41.0825C21.527 43.422 21.527 45.7615 21.527 48.1719C20.925 48.1719 20.323 48.1719 19.7027 48.1719C19.7027 47.5721 19.7027 46.9722 19.7027 46.3541C19.1609 46.3541 18.6191 46.3541 18.0608 46.3541C18.0608 45.8142 18.0608 45.2743 18.0608 44.7181C18.6026 44.7181 19.1445 44.7181 19.7027 44.7181C19.7027 41.1788 19.7027 37.6395 19.7027 33.993C20.9068 33.993 22.1108 33.993 23.3514 33.993C23.3514 33.3931 23.3514 32.7933 23.3514 32.1752C23.8932 32.1752 24.435 32.1752 24.9933 32.1752C24.9933 31.5753 24.9933 30.9755 24.9933 30.3574C24.4514 30.3574 23.9096 30.3574 23.3514 30.3574C23.3514 29.2176 23.3514 28.0779 23.3514 26.9036Z" fill="#5D5D5F"/>
<path d="M10.7635 30.3574C12.5696 30.3574 14.3757 30.3574 16.2365 30.3574C16.2365 30.9573 16.2365 31.5572 16.2365 32.1752C17.3803 32.1752 18.5242 32.1752 19.7027 32.1752C19.7027 36.3144 19.7027 40.4535 19.7027 44.7181C19.1609 44.7181 18.6191 44.7181 18.0608 44.7181C18.0608 45.258 18.0608 45.7979 18.0608 46.3541C18.6026 46.3541 19.1445 46.3541 19.7027 46.3541C19.7027 46.954 19.7027 47.5539 19.7027 48.1719C20.3047 48.1719 20.9068 48.1719 21.527 48.1719C21.527 49.3717 21.527 50.5714 21.527 51.8076C19.7812 51.8076 18.0353 51.8076 16.2365 51.8076C16.2365 50.6078 16.2365 49.408 16.2365 48.1719C16.7783 48.1719 17.3201 48.1719 17.8784 48.1719C17.8784 47.632 17.8784 47.0922 17.8784 46.5359C17.3366 46.5359 16.7947 46.5359 16.2365 46.5359C16.2365 46.4759 16.2365 46.4159 16.2365 46.3541C16.7783 46.3541 17.3201 46.3541 17.8784 46.3541C17.8784 42.8748 17.8784 39.3956 17.8784 35.8108C15.5305 35.8108 13.1826 35.8108 10.7635 35.8108C10.7635 35.211 10.7635 34.6111 10.7635 33.993C10.8237 33.993 10.8839 33.993 10.946 33.993C10.946 34.5329 10.946 35.0728 10.946 35.6291C12.6316 35.6291 14.3173 35.6291 16.0541 35.6291C16.0541 35.0892 16.0541 34.5493 16.0541 33.993C14.9102 33.993 13.7664 33.993 12.5878 33.993C12.5878 33.3931 12.5878 32.7933 12.5878 32.1752C13.7317 32.1752 14.8755 32.1752 16.0541 32.1752C16.0541 31.6353 16.0541 31.0954 16.0541 30.5392C14.3684 30.5392 12.6827 30.5392 10.946 30.5392C10.946 31.0791 10.946 31.619 10.946 32.1752C10.8857 32.1752 10.8255 32.1752 10.7635 32.1752C10.7635 31.5753 10.7635 30.9755 10.7635 30.3574Z" fill="#D3D3D4"/>
<path d="M0 30.3574C0.602027 30.3574 1.20405 30.3574 1.82432 30.3574C1.82432 33.2968 1.82432 36.2362 1.82432 39.2647C3.02838 39.2647 4.23243 39.2647 5.47297 39.2647C5.47297 39.8645 5.47297 40.4644 5.47297 41.0825C6.0148 41.0825 6.55662 41.0825 7.11486 41.0825C7.11486 43.422 7.11486 45.7615 7.11486 48.1719C6.57304 48.1719 6.03122 48.1719 5.47297 48.1719C5.47297 48.7718 5.47297 49.3717 5.47297 49.9897C4.87095 49.9897 4.26892 49.9897 3.64865 49.9897C3.64865 49.3899 3.64865 48.79 3.64865 48.1719C4.19047 48.1719 4.7323 48.1719 5.29054 48.1719C5.29054 45.8924 5.29054 43.6129 5.29054 41.2643C4.14669 41.2643 3.00284 41.2643 1.82432 41.2643C1.82432 40.6644 1.82432 40.0645 1.82432 39.4465C1.2223 39.4465 0.62027 39.4465 0 39.4465C0 36.4471 0 33.4477 0 30.3574Z" fill="#66898C"/>
<path d="M6.93244 0C11.1466 0 15.3608 0 19.7027 0C19.793 0.899815 19.793 0.899815 19.8851 1.81781C20.427 1.81781 20.9688 1.81781 21.527 1.81781C21.527 2.41769 21.527 3.01756 21.527 3.63562C22.1291 3.63562 22.7311 3.63562 23.3514 3.63562C23.3514 4.23549 23.3514 4.83537 23.3514 5.45343C22.7493 5.45343 22.1473 5.45343 21.527 5.45343C21.527 4.91354 21.527 4.37365 21.527 3.8174C20.925 3.8174 20.323 3.8174 19.7027 3.8174C19.7027 3.21752 19.7027 2.61764 19.7027 1.99959C15.6089 1.99959 11.5151 1.99959 7.2973 1.99959C7.2973 2.59947 7.2973 3.19934 7.2973 3.8174C6.69527 3.8174 6.09325 3.8174 5.47298 3.8174C5.47298 4.35729 5.47298 4.89718 5.47298 5.45343C4.87095 5.45343 4.26892 5.45343 3.64865 5.45343C3.64865 4.85355 3.64865 4.25367 3.64865 3.63562C4.25068 3.63562 4.85271 3.63562 5.47298 3.63562C5.47298 3.03574 5.47298 2.43586 5.47298 1.81781C6.0148 1.81781 6.55662 1.81781 7.11487 1.81781C7.02456 0.917994 7.02456 0.917994 6.93244 0Z" fill="#040506"/>
<path d="M23.3514 26.9036C23.9534 26.9036 24.5554 26.9036 25.1757 26.9036C25.1757 28.0433 25.1757 29.1831 25.1757 30.3574C25.7777 30.3574 26.3797 30.3574 27 30.3574C27 33.3568 27 36.3562 27 39.4464C26.398 39.4464 25.796 39.4464 25.1757 39.4464C25.1757 39.9863 25.1757 40.5262 25.1757 41.0825C23.9716 41.0825 22.7676 41.0825 21.527 41.0825C21.527 40.4826 21.527 39.8827 21.527 39.2647C22.6709 39.2647 23.8147 39.2647 24.9933 39.2647C24.9933 37.525 24.9933 35.7854 24.9933 33.993C24.4514 33.993 23.9096 33.993 23.3514 33.993C23.3514 33.3931 23.3514 32.7933 23.3514 32.1752C23.8932 32.1752 24.435 32.1752 24.9933 32.1752C24.9933 31.5753 24.9933 30.9755 24.9933 30.3574C24.4514 30.3574 23.9096 30.3574 23.3514 30.3574C23.3514 29.2176 23.3514 28.0779 23.3514 26.9036Z" fill="#748B8F"/>
<path d="M19.7027 7.27124C20.3047 7.27124 20.9068 7.27124 21.527 7.27124C21.527 8.47099 21.527 9.67075 21.527 10.9069C20.9852 10.9069 20.4434 10.9069 19.8851 10.9069C19.8851 12.0466 19.8851 13.1864 19.8851 14.3607C20.427 14.3607 20.9688 14.3607 21.527 14.3607C21.527 14.9606 21.527 15.5604 21.527 16.1785C20.925 16.1785 20.323 16.1785 19.7027 16.1785C19.7027 15.6386 19.7027 15.0987 19.7027 14.5425C19.1007 14.5425 18.4987 14.5425 17.8784 14.5425C17.8784 13.3427 17.8784 12.143 17.8784 10.9069C16.6743 10.9069 15.4703 10.9069 14.2297 10.9069C14.2297 10.307 14.2297 9.7071 14.2297 9.08905C15.494 9.08905 16.7582 9.08905 18.0608 9.08905C18.0608 9.62894 18.0608 10.1688 18.0608 10.7251C18.6026 10.7251 19.1445 10.7251 19.7027 10.7251C19.7027 9.58531 19.7027 8.44554 19.7027 7.27124Z" fill="#7A7B7F"/>
<path d="M7.2973 5.45343C11.3911 5.45343 15.4849 5.45343 19.7027 5.45343C19.7027 6.05331 19.7027 6.65318 19.7027 7.27124C15.6089 7.27124 11.5151 7.27124 7.2973 7.27124C7.2973 6.67136 7.2973 6.07149 7.2973 5.45343Z" fill="#807F82"/>
<path d="M1.82431 49.9897C2.42634 49.9897 3.02836 49.9897 3.64863 49.9897C3.64863 50.5896 3.64863 51.1895 3.64863 51.8076C5.99654 51.8076 8.34445 51.8076 10.7635 51.8076C10.7635 52.4074 10.7635 53.0073 10.7635 53.6254C7.81357 53.6254 4.86363 53.6254 1.82431 53.6254C1.82431 52.4256 1.82431 51.2259 1.82431 49.9897Z" fill="#0E1113"/>
<path d="M7.2973 46.5359C7.83912 46.5359 8.38095 46.5359 8.93919 46.5359C9.09396 47.7296 9.14445 48.8894 9.13303 50.092C9.12926 50.6581 9.1255 51.2243 9.12162 51.8076C7.31554 51.8076 5.50946 51.8076 3.64865 51.8076C3.64865 51.2077 3.64865 50.6078 3.64865 49.9898C4.25068 49.9898 4.85271 49.9898 5.47298 49.9898C5.47298 49.3899 5.47298 48.79 5.47298 48.1719C6.075 48.1719 6.67703 48.1719 7.2973 48.1719C7.2973 47.6321 7.2973 47.0922 7.2973 46.5359Z" fill="#FAFBFB"/>
<path d="M16.2365 48.1719C17.9824 48.1719 19.7282 48.1719 21.527 48.1719C21.527 49.3717 21.527 50.5714 21.527 51.8076C19.7811 51.8076 18.0353 51.8076 16.2365 51.8076C16.2365 50.6078 16.2365 49.408 16.2365 48.1719Z" fill="#FBFBFC"/>
<path d="M1.82431 32.1752C2.42634 32.1752 3.02836 32.1752 3.64863 32.1752C3.64863 33.375 3.64863 34.5747 3.64863 35.8108C4.25066 35.8108 4.85269 35.8108 5.47296 35.8108C5.47296 36.9506 5.47296 38.0904 5.47296 39.2647C4.2689 39.2647 3.06485 39.2647 1.82431 39.2647C1.82431 36.9252 1.82431 34.5856 1.82431 32.1752Z" fill="#FAFAFB"/>
<path d="M6.93244 0C11.1466 0 15.3608 0 19.7027 0C19.7027 0.0599877 19.7027 0.119975 19.7027 0.181781C15.6089 0.181781 11.5151 0.181781 7.2973 0.181781C7.2973 0.72167 7.2973 1.26156 7.2973 1.81781C11.3911 1.81781 15.4849 1.81781 19.7027 1.81781C19.7027 1.51787 19.7027 1.21793 19.7027 0.908904C19.7629 0.908904 19.8231 0.908904 19.8851 0.908904C19.8851 1.20884 19.8851 1.50878 19.8851 1.81781C20.427 1.81781 20.9688 1.81781 21.527 1.81781C21.527 2.41769 21.527 3.01756 21.527 3.63562C22.1291 3.63562 22.7311 3.63562 23.3514 3.63562C23.3514 4.23549 23.3514 4.83537 23.3514 5.45343C22.7493 5.45343 22.1473 5.45343 21.527 5.45343C21.527 4.91354 21.527 4.37365 21.527 3.8174C20.925 3.8174 20.323 3.8174 19.7027 3.8174C19.7027 3.21752 19.7027 2.61764 19.7027 1.99959C15.6089 1.99959 11.5151 1.99959 7.2973 1.99959C7.2973 2.59947 7.2973 3.19934 7.2973 3.8174C6.69527 3.8174 6.09325 3.8174 5.47298 3.8174C5.47298 4.35729 5.47298 4.89718 5.47298 5.45343C4.87095 5.45343 4.26892 5.45343 3.64865 5.45343C3.64865 4.85355 3.64865 4.25367 3.64865 3.63562C4.25068 3.63562 4.85271 3.63562 5.47298 3.63562C5.47298 3.03574 5.47298 2.43586 5.47298 1.81781C6.0148 1.81781 6.55662 1.81781 7.11487 1.81781C7.02456 0.917994 7.02456 0.917994 6.93244 0Z" fill="#66A9AD"/>
<path d="M5.47298 32.357C6.0148 32.357 6.55662 32.357 7.11487 32.357C7.11487 35.2364 7.11487 38.1158 7.11487 41.0825C6.57304 41.0825 6.03122 41.0825 5.47298 41.0825C5.47298 39.3428 5.47298 37.6032 5.47298 35.8108C4.87095 35.8108 4.26892 35.8108 3.64865 35.8108C3.64865 35.211 3.64865 34.6111 3.64865 33.993C4.25068 33.993 4.85271 33.993 5.47298 33.993C5.47298 33.4531 5.47298 32.9132 5.47298 32.357Z" fill="#565858"/>
<path d="M23.3513 49.9897C23.8932 49.9897 24.435 49.9897 24.9932 49.9897C24.9932 51.1295 24.9932 52.2693 24.9932 53.4436C22.1035 53.4436 19.2138 53.4436 16.2365 53.4436C16.2365 52.9037 16.2365 52.3638 16.2365 51.8076C18.5844 51.8076 20.9323 51.8076 23.3513 51.8076C23.3513 51.2077 23.3513 50.6078 23.3513 49.9897Z" fill="#020301"/>
<path d="M23.3513 5.63521C23.8932 5.63521 24.435 5.63521 24.9932 5.63521C24.9932 9.11449 24.9932 12.5938 24.9932 16.1785C24.4514 16.1785 23.9096 16.1785 23.3513 16.1785C23.3513 12.6992 23.3513 9.21993 23.3513 5.63521Z" fill="#040508"/>
<path d="M19.8851 10.9069C21.029 10.9069 22.1728 10.9069 23.3513 10.9069C23.3513 13.8462 23.3513 16.7856 23.3513 19.8141C22.7493 19.8141 22.1473 19.8141 21.527 19.8141C21.527 19.7541 21.527 19.6941 21.527 19.6323C22.0688 19.6323 22.6107 19.6323 23.1689 19.6323C23.1689 18.4926 23.1689 17.3528 23.1689 16.1785C22.6271 16.1785 22.0853 16.1785 21.527 16.1785C21.527 15.5786 21.527 14.9787 21.527 14.3607C20.9852 14.3607 20.4434 14.3607 19.8851 14.3607C19.8851 13.2209 19.8851 12.0812 19.8851 10.9069Z" fill="#172A3A"/>
<path d="M10.7635 30.3574C12.5696 30.3574 14.3757 30.3574 16.2365 30.3574C16.2365 30.9573 16.2365 31.5572 16.2365 32.1752C17.3803 32.1752 18.5242 32.1752 19.7027 32.1752C19.7027 32.7751 19.7027 33.375 19.7027 33.993C18.5589 33.993 17.415 33.993 16.2365 33.993C16.2365 34.5929 16.2365 35.1928 16.2365 35.8108C14.4304 35.8108 12.6243 35.8108 10.7635 35.8108C10.7635 35.211 10.7635 34.6111 10.7635 33.993C10.8237 33.993 10.8839 33.993 10.946 33.993C10.946 34.5329 10.946 35.0728 10.946 35.6291C12.6316 35.6291 14.3173 35.6291 16.0541 35.6291C16.0541 35.0892 16.0541 34.5493 16.0541 33.993C14.9102 33.993 13.7664 33.993 12.5878 33.993C12.5878 33.3931 12.5878 32.7933 12.5878 32.1752C13.7317 32.1752 14.8755 32.1752 16.0541 32.1752C16.0541 31.6353 16.0541 31.0954 16.0541 30.5392C14.3684 30.5392 12.6827 30.5392 10.946 30.5392C10.946 31.0791 10.946 31.619 10.946 32.1752C10.8857 32.1752 10.8255 32.1752 10.7635 32.1752C10.7635 31.5753 10.7635 30.9755 10.7635 30.3574Z" fill="#BCCDD1"/>
<path d="M23.3514 33.993C23.8932 33.993 24.435 33.993 24.9933 33.993C24.9933 35.7327 24.9933 37.4723 24.9933 39.2647C23.8494 39.2647 22.7056 39.2647 21.527 39.2647C21.527 38.0649 21.527 36.8652 21.527 35.6291C22.1291 35.6291 22.7311 35.6291 23.3514 35.6291C23.3514 35.0892 23.3514 34.5493 23.3514 33.993Z" fill="#D2D3D5"/>
<path d="M14.4122 42.9003C14.954 42.9003 15.4958 42.9003 16.0541 42.9003C16.0541 45.8397 16.0541 48.7791 16.0541 51.8076C15.5122 51.8076 14.9704 51.8076 14.4122 51.8076C14.4122 48.8682 14.4122 45.9288 14.4122 42.9003Z" fill="#050509"/>
<path d="M10.946 42.9003C11.4878 42.9003 12.0296 42.9003 12.5878 42.9003C12.5878 45.8397 12.5878 48.7791 12.5878 51.8076C12.046 51.8076 11.5042 51.8076 10.946 51.8076C10.946 48.8682 10.946 45.9288 10.946 42.9003Z" fill="#040A09"/>
<path d="M0.182434 30.5392C0.724258 30.5392 1.26608 30.5392 1.82433 30.5392C1.82433 33.4186 1.82433 36.298 1.82433 39.2647C1.2825 39.2647 0.740677 39.2647 0.182434 39.2647C0.182434 36.3853 0.182434 33.5058 0.182434 30.5392Z" fill="#070C0E"/>
<path d="M25.1757 30.5392C25.7175 30.5392 26.2593 30.5392 26.8176 30.5392C26.8176 33.4186 26.8176 36.298 26.8176 39.2647C26.2758 39.2647 25.7339 39.2647 25.1757 39.2647C25.1757 36.3853 25.1757 33.5058 25.1757 30.5392Z" fill="#050809"/>
<path d="M2.00674 5.63521C2.54857 5.63521 3.09039 5.63521 3.64864 5.63521C3.64864 9.05451 3.64864 12.4738 3.64864 15.9967C3.16701 15.9967 2.68539 15.9967 2.18918 15.9967C2.19227 15.8723 2.19537 15.7478 2.19856 15.6196C2.23032 14.3281 2.2595 13.0367 2.28716 11.7451C2.29784 11.2626 2.30918 10.7802 2.32119 10.2978C2.33831 9.60566 2.35306 8.91351 2.36733 8.22133C2.37321 8.00451 2.37908 7.78769 2.38513 7.56431C2.39065 7.2641 2.39065 7.2641 2.39628 6.95782C2.40034 6.78102 2.40439 6.60421 2.40856 6.42205C2.41441 5.96347 2.41441 5.96347 2.00674 5.63521Z" fill="#000204"/>
<path d="M19.8851 41.0825C20.427 41.0825 20.9688 41.0825 21.527 41.0825C21.527 43.422 21.527 45.7615 21.527 48.1719C20.9852 48.1719 20.4434 48.1719 19.8851 48.1719C19.8851 45.8324 19.8851 43.4929 19.8851 41.0825Z" fill="#080A0A"/>
<path d="M5.47296 41.0825C6.01479 41.0825 6.55661 41.0825 7.11485 41.0825C7.11485 43.422 7.11485 45.7615 7.11485 48.1719C6.57303 48.1719 6.0312 48.1719 5.47296 48.1719C5.47296 45.8324 5.47296 43.4929 5.47296 41.0825Z" fill="#010100"/>
<path d="M10.7635 23.268C12.5094 23.268 14.2553 23.268 16.0541 23.268C16.0541 23.8678 16.0541 24.4677 16.0541 25.0858C14.3082 25.0858 12.5623 25.0858 10.7635 25.0858C10.7635 24.4859 10.7635 23.886 10.7635 23.268Z" fill="#595D5C"/>
<path d="M19.7027 0.908905C19.7629 0.908905 19.8231 0.908905 19.8851 0.908905C19.8851 1.20884 19.8851 1.50878 19.8851 1.81781C20.427 1.81781 20.9688 1.81781 21.527 1.81781C21.527 2.41769 21.527 3.01756 21.527 3.63562C22.1291 3.63562 22.7311 3.63562 23.3514 3.63562C23.3514 4.2355 23.3514 4.83537 23.3514 5.45343C22.7493 5.45343 22.1473 5.45343 21.527 5.45343C21.527 4.91354 21.527 4.37365 21.527 3.8174C20.925 3.8174 20.323 3.8174 19.7027 3.8174C19.7027 3.21752 19.7027 2.61765 19.7027 1.99959C15.6089 1.99959 11.5151 1.99959 7.2973 1.99959C7.2973 1.9396 7.2973 1.87961 7.2973 1.81781C11.3911 1.81781 15.4849 1.81781 19.7027 1.81781C19.7027 1.51787 19.7027 1.21793 19.7027 0.908905Z" fill="#748689"/>
<path d="M10.946 30.5392C12.6316 30.5392 14.3173 30.5392 16.0541 30.5392C16.0541 31.0791 16.0541 31.619 16.0541 32.1752C14.3684 32.1752 12.6827 32.1752 10.946 32.1752C10.946 31.6353 10.946 31.0954 10.946 30.5392Z" fill="#76A5BA"/>
<path d="M5.47296 32.1752C8.00147 32.2652 8.00147 32.2652 10.5811 32.357C10.5811 32.417 10.5811 32.477 10.5811 32.5388C9.85864 32.5388 9.1362 32.5388 8.39188 32.5388C8.39188 32.6588 8.39188 32.7787 8.39188 32.9023C8.7531 32.9023 9.11431 32.9023 9.48647 32.9023C9.48647 32.9623 9.48647 33.0223 9.48647 33.0841C9.11828 33.0664 8.75009 33.0486 8.3819 33.0309C8.20623 33.0572 8.20623 33.0572 8.02702 33.0841C7.84641 33.3541 7.84641 33.3541 7.66215 33.6295C7.78256 33.6295 7.90296 33.6295 8.02702 33.6295C8.02702 33.7494 8.02702 33.8694 8.02702 33.993C7.7862 33.993 7.54539 33.993 7.29729 33.993C7.29729 37.5323 7.29729 41.0716 7.29729 44.7181C7.83911 44.7181 8.38093 44.7181 8.93918 44.7181C8.93918 45.258 8.93918 45.7979 8.93918 46.3541C8.39735 46.3541 7.85553 46.3541 7.29729 46.3541C7.29729 46.954 7.29729 47.5539 7.29729 48.1719C7.23708 48.1719 7.17688 48.1719 7.11485 48.1719C7.11485 42.953 7.11485 37.7341 7.11485 32.357C6.57303 32.357 6.0312 32.357 5.47296 32.357C5.47296 32.297 5.47296 32.237 5.47296 32.1752Z" fill="#8A9DA5"/>
<path d="M7.2973 32.1752C8.98298 32.1752 10.6687 32.1752 12.4054 32.1752C12.4054 32.7751 12.4054 33.375 12.4054 33.993C10.9605 33.993 9.51568 33.993 8.02703 33.993C8.02703 33.8731 8.02703 33.7531 8.02703 33.6295C7.90663 33.6295 7.78622 33.6295 7.66217 33.6295C7.78257 33.3895 7.90298 33.1496 8.02703 32.9023C8.14744 32.9023 8.26784 32.9023 8.3919 32.9023C8.3919 32.7824 8.3919 32.6624 8.3919 32.5388C7.85007 32.4488 7.85007 32.4488 7.2973 32.357C7.2973 32.297 7.2973 32.237 7.2973 32.1752Z" fill="#79ACC2"/>
<path d="M8.93919 42.9003C9.54122 42.9003 10.1432 42.9003 10.7635 42.9003C10.7635 44.1001 10.7635 45.2998 10.7635 46.5359C10.2217 46.5359 9.67987 46.5359 9.12163 46.5359C9.12163 47.0758 9.12163 47.6157 9.12163 48.1719C9.06142 48.1719 9.00122 48.1719 8.93919 48.1719C8.93919 47.6321 8.93919 47.0922 8.93919 46.5359C8.39737 46.5359 7.85555 46.5359 7.2973 46.5359C7.2973 46.4759 7.2973 46.4159 7.2973 46.3541C7.83913 46.3541 8.38095 46.3541 8.93919 46.3541C8.93919 45.2144 8.93919 44.0746 8.93919 42.9003Z" fill="#D2D4D5"/>
<path d="M16.054 42.9003C16.1142 42.9003 16.1745 42.9003 16.2365 42.9003C16.2365 44.1001 16.2365 45.2998 16.2365 46.5359C16.7783 46.5359 17.3201 46.5359 17.8784 46.5359C17.8784 47.0758 17.8784 47.6157 17.8784 48.1719C17.3365 48.1719 16.7947 48.1719 16.2365 48.1719C16.2365 49.9116 16.2365 51.6512 16.2365 53.4436C19.1262 53.4436 22.0159 53.4436 24.9932 53.4436C24.9932 52.3038 24.9932 51.1641 24.9932 49.9898C25.0534 49.9898 25.1136 49.9898 25.1757 49.9898C25.1757 51.1895 25.1757 52.3893 25.1757 53.6254C22.1655 53.6254 19.1554 53.6254 16.054 53.6254C16.054 50.0861 16.054 46.5468 16.054 42.9003Z" fill="#648B95"/>
<path d="M12.5878 41.0825C13.1899 41.0825 13.7919 41.0825 14.4122 41.0825C14.4122 44.6218 14.4122 48.161 14.4122 51.8076C14.352 51.8076 14.2917 51.8076 14.2297 51.8076C14.2297 48.9282 14.2297 46.0487 14.2297 43.0821C13.7481 43.0821 13.2665 43.0821 12.7703 43.0821C12.7703 45.9615 12.7703 48.8409 12.7703 51.8076C12.7101 51.8076 12.6499 51.8076 12.5878 51.8076C12.5878 48.2683 12.5878 44.729 12.5878 41.0825Z" fill="#7DA7A7"/>
<path d="M21.527 26.9036C22.1291 26.9036 22.7311 26.9036 23.3514 26.9036C23.3514 28.0433 23.3514 29.1831 23.3514 30.3574C23.8932 30.3574 24.435 30.3574 24.9933 30.3574C24.9933 30.9573 24.9933 31.5572 24.9933 32.1752C24.4514 32.1752 23.9096 32.1752 23.3514 32.1752C23.2007 31.0119 23.1523 29.8944 23.1689 28.7214C22.6271 28.7214 22.0853 28.7214 21.527 28.7214C21.527 28.1215 21.527 27.5216 21.527 26.9036Z" fill="#CDCDCF"/>
<path d="M16.054 23.268C17.2581 23.268 18.4622 23.268 19.7027 23.268C19.7027 23.8678 19.7027 24.4677 19.7027 25.0858C18.4986 25.0858 17.2946 25.0858 16.054 25.0858C16.054 24.4859 16.054 23.886 16.054 23.268Z" fill="#CECECE"/>
<path d="M5.47296 7.27124C6.07499 7.27124 6.67702 7.27124 7.29729 7.27124C7.29729 8.47099 7.29729 9.67075 7.29729 10.9069C6.69526 10.9069 6.09323 10.9069 5.47296 10.9069C5.47296 9.7071 5.47296 8.50735 5.47296 7.27124Z" fill="#79797B"/>
<path d="M1.82431 26.9036C2.42634 26.9036 3.02836 26.9036 3.64863 26.9036C3.64863 28.0433 3.64863 29.1831 3.64863 30.3574C3.04661 30.3574 2.44458 30.3574 1.82431 30.3574C1.82431 29.2176 1.82431 28.0779 1.82431 26.9036Z" fill="#151F1D"/>
<path d="M1.82431 5.45343C2.42634 5.45343 3.02836 5.45343 3.64863 5.45343C3.46803 5.72337 3.46803 5.72337 3.28377 5.99877C2.80488 6.03286 2.80488 6.03286 2.37161 5.99877C2.37201 6.11867 2.37242 6.23856 2.37284 6.36208C2.37686 7.60641 2.37962 8.85073 2.38163 10.0951C2.38255 10.5599 2.38379 11.0247 2.38537 11.4895C2.38758 12.1564 2.38862 12.8232 2.38942 13.4901C2.39036 13.699 2.39131 13.9079 2.39228 14.1231C2.39229 14.3159 2.3923 14.5088 2.39232 14.7075C2.39272 14.8778 2.39313 15.0482 2.39355 15.2237C2.37161 15.6332 2.37161 15.6332 2.18918 15.9967C2.6708 15.9967 3.15242 15.9967 3.64863 15.9967C3.64863 16.0567 3.64863 16.1167 3.64863 16.1785C3.04661 16.1785 2.44458 16.1785 1.82431 16.1785C1.82431 12.6392 1.82431 9.09995 1.82431 5.45343Z" fill="#1A2927"/>
<path d="M9.12161 48.1719C9.66344 48.1719 10.2053 48.1719 10.7635 48.1719C10.7635 49.3717 10.7635 50.5714 10.7635 51.8076C10.2217 51.8076 9.67986 51.8076 9.12161 51.8076C9.12161 50.6078 9.12161 49.408 9.12161 48.1719Z" fill="#D2D1D4"/>
<path d="M0.912165 30.9028C1.09277 30.9028 1.27338 30.9028 1.45946 30.9028C1.45946 33.5422 1.45946 36.1817 1.45946 38.9011C1.21865 38.9011 0.977841 38.9011 0.729732 38.9011C0.454225 32.9543 0.454225 32.9543 0.729732 31.0845C0.789935 31.0245 0.850138 30.9646 0.912165 30.9028Z" fill="#020203"/>
<path d="M3.83108 16.1785C4.37291 16.1785 4.91473 16.1785 5.47298 16.1785C5.47298 17.3183 5.47298 18.458 5.47298 19.6323C4.87095 19.6323 4.26892 19.6323 3.64865 19.6323C3.70885 18.4926 3.76906 17.3528 3.83108 16.1785Z" fill="#000304"/>
<path d="M21.527 39.4465C22.6709 39.4465 23.8147 39.4465 24.9933 39.4465C24.9933 39.9863 24.9933 40.5262 24.9933 41.0825C23.8494 41.0825 22.7056 41.0825 21.527 41.0825C21.527 40.5426 21.527 40.0027 21.527 39.4465Z" fill="#020103"/>
<path d="M2.00674 39.4465C3.1506 39.4465 4.29445 39.4465 5.47296 39.4465C5.47296 39.9863 5.47296 40.5262 5.47296 41.0825C4.32911 41.0825 3.18526 41.0825 2.00674 41.0825C2.00674 40.5426 2.00674 40.0027 2.00674 39.4465Z" fill="#050709"/>
<path d="M16.2365 32.357C17.3803 32.357 18.5242 32.357 19.7027 32.357C19.7027 32.8969 19.7027 33.4368 19.7027 33.993C18.5588 33.993 17.415 33.993 16.2365 33.993C16.2365 33.4531 16.2365 32.9132 16.2365 32.357Z" fill="#77A5BC"/>
<path d="M23.3513 26.9036C23.8932 26.9036 24.435 26.9036 24.9932 26.9036C24.9932 28.0433 24.9932 29.1831 24.9932 30.3574C24.4514 30.3574 23.9096 30.3574 23.3513 30.3574C23.3513 29.2176 23.3513 28.0779 23.3513 26.9036Z" fill="#090D0D"/>
<path d="M21.527 16.1785C22.0689 16.1785 22.6107 16.1785 23.1689 16.1785C23.1689 17.3183 23.1689 18.458 23.1689 19.6323C22.6271 19.6323 22.0853 19.6323 21.527 19.6323C21.527 18.4926 21.527 17.3528 21.527 16.1785Z" fill="#010304"/>
<path d="M18.0608 10.9069C18.6026 10.9069 19.1445 10.9069 19.7027 10.9069C19.7027 12.0466 19.7027 13.1864 19.7027 14.3607C19.1609 14.3607 18.6191 14.3607 18.0608 14.3607C18.0608 13.2209 18.0608 12.0812 18.0608 10.9069Z" fill="#F5FBFA"/>
<path d="M14.4122 9.08904C15.556 9.08904 16.6999 9.08904 17.8784 9.08904C17.8784 9.62893 17.8784 10.1688 17.8784 10.7251C16.7345 10.7251 15.5907 10.7251 14.4122 10.7251C14.4122 10.1852 14.4122 9.64529 14.4122 9.08904Z" fill="#F7F8FA"/>
<path d="M5.47296 41.0825C6.01479 41.0825 6.55661 41.0825 7.11485 41.0825C7.11485 43.422 7.11485 45.7615 7.11485 48.1719C6.57303 48.1719 6.0312 48.1719 5.47296 48.1719C5.47296 45.8324 5.47296 43.4929 5.47296 41.0825ZM5.65539 41.2643C5.7156 43.4238 5.7758 45.5834 5.83783 47.8084C6.13884 47.8084 6.43985 47.8084 6.74999 47.8084C6.74999 45.6488 6.74999 43.4893 6.74999 41.2643C6.38877 41.2643 6.02756 41.2643 5.65539 41.2643Z" fill="#0A0C0D"/>
<path d="M23.5338 49.9897C24.0154 49.9897 24.497 49.9897 24.9932 49.9897C24.9932 51.1295 24.9932 52.2693 24.9932 53.4436C22.1035 53.4436 19.2138 53.4436 16.2365 53.4436C16.2365 52.9037 16.2365 52.3638 16.2365 51.8076C16.3569 51.8076 16.4773 51.8076 16.6013 51.8076C16.6615 52.2275 16.7218 52.6474 16.7838 53.08C19.3725 53.08 21.9612 53.08 24.6284 53.08C24.5381 52.9001 24.5381 52.9001 24.4459 52.7165C24.4098 52.1088 24.3879 51.5014 24.3683 50.893C24.3249 50.3315 24.3249 50.3315 23.8908 50.0977C23.773 50.0621 23.6552 50.0264 23.5338 49.9897Z" fill="#010A06"/>
<path d="M10.7635 42.9003C10.8237 42.9003 10.8839 42.9003 10.9459 42.9003C10.9459 45.8397 10.9459 48.7791 10.9459 51.8076C10.8857 51.8076 10.8255 51.8076 10.7635 51.8076C10.7635 50.6078 10.7635 49.4081 10.7635 48.1719C10.2217 48.1719 9.67986 48.1719 9.12161 48.1719C9.12161 47.6321 9.12161 47.0922 9.12161 46.5359C9.66344 46.5359 10.2053 46.5359 10.7635 46.5359C10.7635 45.3362 10.7635 44.1364 10.7635 42.9003Z" fill="#568697"/>
<path d="M17.8784 44.7181C17.9386 44.7181 17.9988 44.7181 18.0608 44.7181C18.0608 45.258 18.0608 45.7979 18.0608 46.3541C18.6026 46.3541 19.1445 46.3541 19.7027 46.3541C19.7027 46.954 19.7027 47.5539 19.7027 48.1719C19.1007 48.1719 18.4986 48.1719 17.8784 48.1719C17.8784 47.6321 17.8784 47.0922 17.8784 46.5359C17.3365 46.5359 16.7947 46.5359 16.2365 46.5359C16.2365 46.4759 16.2365 46.4159 16.2365 46.3541C16.7783 46.3541 17.3201 46.3541 17.8784 46.3541C17.8784 45.8142 17.8784 45.2744 17.8784 44.7181Z" fill="#D0D5D5"/>
<path d="M14.4122 42.9003C14.5928 42.9903 14.5928 42.9903 14.777 43.0821C14.8372 45.8415 14.8974 48.6009 14.9595 51.444C15.2605 51.504 15.5615 51.564 15.8716 51.6258C15.8716 51.6858 15.8716 51.7458 15.8716 51.8076C15.39 51.8076 14.9084 51.8076 14.4122 51.8076C14.4122 48.8682 14.4122 45.9288 14.4122 42.9003Z" fill="#090C13"/>
<path d="M21.527 49.9897C22.1291 49.9897 22.7311 49.9897 23.3514 49.9897C23.3514 50.5896 23.3514 51.1895 23.3514 51.8076C22.7493 51.8076 22.1473 51.8076 21.527 51.8076C21.527 51.2077 21.527 50.6078 21.527 49.9897Z" fill="#CFCECD"/>
<path d="M21.527 48.1719C22.1291 48.1719 22.7311 48.1719 23.3514 48.1719C23.3514 48.7718 23.3514 49.3717 23.3514 49.9897C22.7493 49.9897 22.1473 49.9897 21.527 49.9897C21.527 49.3899 21.527 48.79 21.527 48.1719Z" fill="#121816"/>
<path d="M19.7027 48.1719C20.3047 48.1719 20.9068 48.1719 21.527 48.1719C21.527 48.7718 21.527 49.3717 21.527 49.9897C20.925 49.9897 20.323 49.9897 19.7027 49.9897C19.7027 49.3899 19.7027 48.79 19.7027 48.1719Z" fill="#CFD0D2"/>
<path d="M7.11487 44.7181C7.7169 44.7181 8.31892 44.7181 8.93919 44.7181C8.93919 45.258 8.93919 45.7979 8.93919 46.3541C8.39737 46.3541 7.85554 46.3541 7.2973 46.3541C7.2973 46.954 7.2973 47.5539 7.2973 48.1719C7.2371 48.1719 7.1769 48.1719 7.11487 48.1719C7.11487 47.0322 7.11487 45.8924 7.11487 44.7181Z" fill="#5B95AA"/>
<path d="M10.7635 41.0825C11.3655 41.0825 11.9676 41.0825 12.5878 41.0825C12.5878 41.6824 12.5878 42.2822 12.5878 42.9003C11.9858 42.9003 11.3838 42.9003 10.7635 42.9003C10.7635 42.3004 10.7635 41.7005 10.7635 41.0825Z" fill="#D2D2D2"/>
<path d="M12.5878 39.2647C13.1899 39.2647 13.7919 39.2647 14.4122 39.2647C14.4122 39.8646 14.4122 40.4644 14.4122 41.0825C13.8101 41.0825 13.2081 41.0825 12.5878 41.0825C12.5878 40.4826 12.5878 39.8827 12.5878 39.2647Z" fill="#D5D5D5"/>
<path d="M21.527 35.8108C22.1291 35.8108 22.7311 35.8108 23.3514 35.8108C23.3514 36.4107 23.3514 37.0106 23.3514 37.6286C22.7493 37.6286 22.1473 37.6286 21.527 37.6286C21.527 37.0288 21.527 36.4289 21.527 35.8108Z" fill="#FBFAFC"/>
<path d="M3.64865 33.993C4.25068 33.993 4.85271 33.993 5.47298 33.993C5.47298 34.5929 5.47298 35.1928 5.47298 35.8108C4.87095 35.8108 4.26892 35.8108 3.64865 35.8108C3.64865 35.211 3.64865 34.6111 3.64865 33.993Z" fill="#5FA0BE"/>
<path d="M1.82431 32.1752C2.42634 32.1752 3.02836 32.1752 3.64863 32.1752C3.64863 32.7751 3.64863 33.375 3.64863 33.993C3.04661 33.993 2.44458 33.993 1.82431 33.993C1.82431 33.3931 1.82431 32.7933 1.82431 32.1752Z" fill="#5AA0BE"/>
<path d="M21.527 25.0858C22.1291 25.0858 22.7311 25.0858 23.3514 25.0858C23.3514 25.6856 23.3514 26.2855 23.3514 26.9036C22.7493 26.9036 22.1473 26.9036 21.527 26.9036C21.527 26.3037 21.527 25.7038 21.527 25.0858Z" fill="#202A28"/>
<path d="M19.7027 25.0858C20.3047 25.0858 20.9068 25.0858 21.527 25.0858C21.527 25.6856 21.527 26.2855 21.527 26.9036C20.925 26.9036 20.323 26.9036 19.7027 26.9036C19.7027 26.3037 19.7027 25.7038 19.7027 25.0858Z" fill="#D2D3D3"/>
<path d="M19.7027 23.268C20.3047 23.268 20.9068 23.268 21.527 23.268C21.527 23.8678 21.527 24.4677 21.527 25.0858C20.925 25.0858 20.323 25.0858 19.7027 25.0858C19.7027 24.4859 19.7027 23.886 19.7027 23.268Z" fill="#151E1C"/>
<path d="M16.054 21.4501C16.6561 21.4501 17.2581 21.4501 17.8784 21.4501C17.8784 22.05 17.8784 22.6499 17.8784 23.268C17.2763 23.268 16.6743 23.268 16.054 23.268C16.054 22.6681 16.054 22.0682 16.054 21.4501Z" fill="#585D60"/>
<path d="M19.7027 14.3607C20.3047 14.3607 20.9068 14.3607 21.527 14.3607C21.527 14.9606 21.527 15.5604 21.527 16.1785C20.925 16.1785 20.323 16.1785 19.7027 16.1785C19.7027 15.5786 19.7027 14.9787 19.7027 14.3607Z" fill="#EDF2F3"/>
<path d="M21.527 10.9069C22.1291 10.9069 22.7311 10.9069 23.3514 10.9069C23.3514 11.5067 23.3514 12.1066 23.3514 12.7247C22.7493 12.7247 22.1473 12.7247 21.527 12.7247C21.527 12.1248 21.527 11.5249 21.527 10.9069Z" fill="#727679"/>
<path d="M3.64865 10.9069C4.25068 10.9069 4.85271 10.9069 5.47298 10.9069C5.47298 11.5067 5.47298 12.1066 5.47298 12.7247C4.87095 12.7247 4.26892 12.7247 3.64865 12.7247C3.64865 12.1248 3.64865 11.5249 3.64865 10.9069Z" fill="#757575"/>
<path d="M9.49862 21.4324C10.1311 21.4413 10.1311 21.4413 10.7635 21.4501C10.7635 22.05 10.7635 22.6499 10.7635 23.268C10.1615 23.268 9.55947 23.268 8.9392 23.268C8.92139 22.0076 8.92139 22.0076 8.9392 21.6319C9.12164 21.4501 9.12164 21.4501 9.49862 21.4324Z" fill="#525858"/>
<path d="M5.47296 19.6323C6.73787 19.6146 6.73787 19.6146 7.11485 19.6323C7.29729 19.8141 7.29729 19.8141 7.3151 20.1897C7.30916 20.6099 7.30322 21.03 7.29729 21.4501C6.69526 21.4501 6.09323 21.4501 5.47296 21.4501C5.47296 20.8503 5.47296 20.2504 5.47296 19.6323Z" fill="#010307"/>
<path d="M7.47973 21.2684C7.97062 21.3004 8.45182 21.3808 8.93919 21.4501C8.93919 22.05 8.93919 22.6499 8.93919 23.268C8.39736 23.268 7.85554 23.268 7.2973 23.268C7.29239 22.9688 7.28884 22.6696 7.28589 22.3704C7.28378 22.2038 7.28166 22.0372 7.27948 21.8655C7.2973 21.4501 7.2973 21.4501 7.47973 21.2684Z" fill="#000303"/>
<path d="M12.5878 41.0825C13.1297 41.0825 13.6715 41.0825 14.2297 41.0825C14.2297 41.6824 14.2297 42.2822 14.2297 42.9003C13.6879 42.9003 13.1461 42.9003 12.5878 42.9003C12.5878 42.3004 12.5878 41.7005 12.5878 41.0825Z" fill="#101517"/>
<path d="M21.527 33.993C22.1291 33.993 22.7311 33.993 23.3514 33.993C23.3514 34.5329 23.3514 35.0728 23.3514 35.6291C22.7493 35.6291 22.1473 35.6291 21.527 35.6291C21.527 35.0892 21.527 34.5493 21.527 33.993Z" fill="#5C9EB7"/>
<path d="M23.3513 32.1752C23.8932 32.1752 24.435 32.1752 24.9932 32.1752C24.9932 32.7751 24.9932 33.375 24.9932 33.993C24.4514 33.993 23.9096 33.993 23.3513 33.993C23.3513 33.3931 23.3513 32.7933 23.3513 32.1752Z" fill="#5BA0BA"/>
<path d="M2.37161 27.2671C2.73283 27.2671 3.09404 27.2671 3.46621 27.2671C3.46621 28.167 3.46621 29.0668 3.46621 29.9938C3.10499 29.9938 2.74377 29.9938 2.37161 29.9938C2.37161 29.094 2.37161 28.1942 2.37161 27.2671Z" fill="#010304"/>
<path d="M21.527 26.9036C22.0689 26.9036 22.6107 26.9036 23.1689 26.9036C23.1689 27.5034 23.1689 28.1033 23.1689 28.7214C22.6271 28.7214 22.0853 28.7214 21.527 28.7214C21.527 28.1215 21.527 27.5216 21.527 26.9036Z" fill="#D6D5D6"/>
<path d="M5.47296 23.268C6.01479 23.268 6.55661 23.268 7.11485 23.268C7.11485 23.8678 7.11485 24.4677 7.11485 25.0858C6.57303 25.0858 6.0312 25.0858 5.47296 25.0858C5.47296 24.4859 5.47296 23.886 5.47296 23.268Z" fill="#0D1412"/>
<path d="M18.0608 21.4501C18.6026 21.4501 19.1445 21.4501 19.7027 21.4501C19.7027 22.05 19.7027 22.6499 19.7027 23.268C19.1609 23.268 18.6191 23.268 18.0608 23.268C18.0608 22.6681 18.0608 22.0682 18.0608 21.4501Z" fill="#010607"/>
<path d="M5.47296 10.9069C6.07499 10.9069 6.67702 10.9069 7.29729 10.9069C7.29729 11.4467 7.29729 11.9866 7.29729 12.5429C6.69526 12.5429 6.09323 12.5429 5.47296 12.5429C5.47296 12.003 5.47296 11.4631 5.47296 10.9069Z" fill="#091624"/>
<path d="M23.5338 49.9897C24.0154 49.9897 24.497 49.9897 24.9932 49.9897C24.933 51.0695 24.8728 52.1493 24.8108 53.2618C22.1619 53.2618 19.513 53.2618 16.7838 53.2618C16.7838 53.2018 16.7838 53.1418 16.7838 53.08C19.3725 53.08 21.9612 53.08 24.6284 53.08C24.5381 52.9001 24.5381 52.9001 24.4459 52.7165C24.4098 52.1088 24.3879 51.5014 24.3683 50.893C24.3249 50.3315 24.3249 50.3315 23.8908 50.0977C23.773 50.0621 23.6552 50.0264 23.5338 49.9897Z" fill="#0D130F"/>
<path d="M19.7027 19.8141C20.2445 19.8141 20.7863 19.8141 21.3446 19.8141C21.4048 20.354 21.465 20.8939 21.527 21.4501C20.925 21.4501 20.323 21.4501 19.7027 21.4501C19.7027 20.9103 19.7027 20.3704 19.7027 19.8141Z" fill="#020705"/>
<path d="M3.64865 48.3537C4.19048 48.3537 4.7323 48.3537 5.29054 48.3537C5.29054 48.8936 5.29054 49.4335 5.29054 49.9898C4.74872 49.9898 4.20689 49.9898 3.64865 49.9898C3.64865 49.4499 3.64865 48.91 3.64865 48.3537Z" fill="#0C0F10"/>
<path d="M18.0608 44.7181C18.6026 44.7181 19.1445 44.7181 19.7027 44.7181C19.7027 45.258 19.7027 45.7979 19.7027 46.3541C19.1609 46.3541 18.6191 46.3541 18.0608 46.3541C18.0608 45.8142 18.0608 45.2744 18.0608 44.7181Z" fill="#589AB7"/>
<path d="M3.64865 25.0858C4.19048 25.0858 4.7323 25.0858 5.29054 25.0858C5.29054 25.6257 5.29054 26.1655 5.29054 26.7218C4.74872 26.7218 4.20689 26.7218 3.64865 26.7218C3.64865 26.1819 3.64865 25.642 3.64865 25.0858Z" fill="#080D0D"/>
<path d="M21.527 3.8174C22.0689 3.8174 22.6107 3.8174 23.1689 3.8174C23.1689 4.35729 23.1689 4.89718 23.1689 5.45343C22.6271 5.45343 22.0853 5.45343 21.527 5.45343C21.527 4.91354 21.527 4.37365 21.527 3.8174Z" fill="#080C0A"/>
<path d="M3.64865 3.8174C4.19048 3.8174 4.7323 3.8174 5.29054 3.8174C5.29054 4.35729 5.29054 4.89718 5.29054 5.45343C4.74872 5.45343 4.20689 5.45343 3.64865 5.45343C3.64865 4.91354 3.64865 4.37365 3.64865 3.8174Z" fill="#080C0B"/>
<path d="M5.47296 1.99959C6.01479 1.99959 6.55661 1.99959 7.11485 1.99959C7.11485 2.53948 7.11485 3.07937 7.11485 3.63562C6.57303 3.63562 6.0312 3.63562 5.47296 3.63562C5.47296 3.09573 5.47296 2.55584 5.47296 1.99959Z" fill="#0A0D0E"/>
<path d="M19.8851 1.99959C20.427 1.99959 20.9688 1.99959 21.527 1.99959C21.527 2.53948 21.527 3.07937 21.527 3.63562C20.9852 3.63562 20.4434 3.63562 19.8851 3.63562C19.8851 3.09573 19.8851 2.55584 19.8851 1.99959Z" fill="#090D0B"/>
<path d="M10.946 32.1752C11.4276 32.1752 11.9092 32.1752 12.4054 32.1752C12.4054 32.7751 12.4054 33.375 12.4054 33.993C11.9238 33.993 11.4422 33.993 10.946 33.993C10.946 33.3931 10.946 32.7933 10.946 32.1752Z" fill="#1ADCD3"/>
<path d="M14.2297 9.08904C14.2899 9.08904 14.3501 9.08904 14.4122 9.08904C14.4122 9.62893 14.4122 10.1688 14.4122 10.7251C15.556 10.7251 16.6999 10.7251 17.8784 10.7251C17.8784 10.1852 17.8784 9.64529 17.8784 9.08904C17.9386 9.08904 17.9988 9.08904 18.0608 9.08904C18.0608 9.62893 18.0608 10.1688 18.0608 10.7251C18.6026 10.7251 19.1445 10.7251 19.7027 10.7251C19.7027 10.7851 19.7027 10.845 19.7027 10.9069C19.1609 10.9069 18.6191 10.9069 18.0608 10.9069C18.0608 12.0466 18.0608 13.1864 18.0608 14.3607C18.6026 14.3607 19.1445 14.3607 19.7027 14.3607C19.7027 14.4207 19.7027 14.4807 19.7027 14.5425C19.1007 14.5425 18.4987 14.5425 17.8784 14.5425C17.8784 13.3427 17.8784 12.143 17.8784 10.9069C16.6743 10.9069 15.4703 10.9069 14.2297 10.9069C14.2297 10.307 14.2297 9.7071 14.2297 9.08904Z" fill="#A0A8AC"/>
<path d="M21.527 39.4465C22.6709 39.4465 23.8147 39.4465 24.9933 39.4465C24.9933 39.9863 24.9933 40.5262 24.9933 41.0825C23.8494 41.0825 22.7056 41.0825 21.527 41.0825C21.527 40.5426 21.527 40.0027 21.527 39.4465ZM21.7095 39.81C21.7095 40.1699 21.7095 40.5299 21.7095 40.9007C22.6727 40.9007 23.636 40.9007 24.6284 40.9007C24.6284 40.5408 24.6284 40.1809 24.6284 39.81C23.6651 39.81 22.7019 39.81 21.7095 39.81Z" fill="#070D0C"/>
<path d="M23.7162 27.2671C24.0172 27.2671 24.3182 27.2671 24.6284 27.2671C24.6284 28.167 24.6284 29.0668 24.6284 29.9938C24.3274 29.9938 24.0264 29.9938 23.7162 29.9938C23.7162 29.094 23.7162 28.1942 23.7162 27.2671Z" fill="#010202"/>
<path d="M25.1757 50.8987C25.2359 50.8987 25.2961 50.8987 25.3581 50.8987C25.4484 52.3384 25.4484 52.3384 25.5405 53.8071C25.0956 54.0288 24.827 54.0045 24.3304 53.9929C24.1551 53.9892 23.9798 53.9856 23.7992 53.9818C23.6096 53.9769 23.4199 53.972 23.2245 53.9669C22.9337 53.9605 22.9337 53.9605 22.6371 53.9539C22.0162 53.94 21.3953 53.9247 20.7745 53.9094C20.3543 53.8997 19.9341 53.8901 19.5139 53.8806C18.4822 53.8571 17.4505 53.8325 16.4189 53.8071C16.4189 53.7472 16.4189 53.6872 16.4189 53.6254C19.3086 53.6254 22.1984 53.6254 25.1757 53.6254C25.1757 52.7255 25.1757 51.8257 25.1757 50.8987Z" fill="#75D0D7"/>
<path d="M22.8041 16.1785C22.9245 16.1785 23.0449 16.1785 23.1689 16.1785C23.1689 17.3183 23.1689 18.458 23.1689 19.6323C22.6271 19.6323 22.0853 19.6323 21.527 19.6323C21.527 19.5124 21.527 19.3924 21.527 19.2688C21.9485 19.2688 22.3699 19.2688 22.8041 19.2688C22.8041 18.249 22.8041 17.2292 22.8041 16.1785Z" fill="#050B0C"/>
<path d="M14.4122 44.8999C14.4724 44.8999 14.5326 44.8999 14.5946 44.8999C14.5992 45.0852 14.6037 45.2705 14.6085 45.4615C14.6256 46.1479 14.6439 46.8342 14.6625 47.5205C14.6704 47.8178 14.678 48.1151 14.6853 48.4124C14.6959 48.8393 14.7075 49.2661 14.7193 49.6929C14.7224 49.8263 14.7254 49.9596 14.7286 50.0969C14.7381 50.7936 14.7381 50.7936 14.9595 51.444C15.4205 51.5632 15.4205 51.5632 15.8716 51.6258C15.8716 51.6858 15.8716 51.7458 15.8716 51.8076C15.39 51.8076 14.9084 51.8076 14.4122 51.8076C14.4122 49.528 14.4122 47.2485 14.4122 44.8999Z" fill="#081819"/>
<path d="M1.82431 32.1752C2.42634 32.1752 3.02836 32.1752 3.64863 32.1752C3.64863 32.2952 3.64863 32.4152 3.64863 32.5388C3.28742 32.5388 2.9262 32.5388 2.55404 32.5388C2.55404 32.8987 2.55404 33.2586 2.55404 33.6295C2.43363 33.6295 2.31323 33.6295 2.18918 33.6295C2.18918 33.7494 2.18918 33.8694 2.18918 33.993C2.06877 33.993 1.94836 33.993 1.82431 33.993C1.82431 33.3931 1.82431 32.7933 1.82431 32.1752Z" fill="#609EB1"/>
<path d="M8.93919 44.7181C8.9994 44.7181 9.0596 44.7181 9.12163 44.7181C9.12163 45.258 9.12163 45.7979 9.12163 46.3541C9.66345 46.3541 10.2053 46.3541 10.7635 46.3541C10.7635 46.4141 10.7635 46.4741 10.7635 46.5359C10.2217 46.5359 9.67987 46.5359 9.12163 46.5359C9.12163 47.0758 9.12163 47.6157 9.12163 48.1719C9.06142 48.1719 9.00122 48.1719 8.93919 48.1719C8.93919 47.6321 8.93919 47.0922 8.93919 46.5359C8.39737 46.5359 7.85555 46.5359 7.2973 46.5359C7.2973 46.4759 7.2973 46.4159 7.2973 46.3541C7.83913 46.3541 8.38095 46.3541 8.93919 46.3541C8.93919 45.8142 8.93919 45.2744 8.93919 44.7181Z" fill="#A6C9D5"/>
<path d="M17.8784 44.7181C17.9386 44.7181 17.9988 44.7181 18.0608 44.7181C18.0608 45.258 18.0608 45.7979 18.0608 46.3541C18.6026 46.3541 19.1445 46.3541 19.7027 46.3541C19.7027 46.4141 19.7027 46.4741 19.7027 46.5359C19.1609 46.5359 18.619 46.5359 18.0608 46.5359C18.0608 47.0758 18.0608 47.6157 18.0608 48.1719C18.0006 48.1719 17.9404 48.1719 17.8784 48.1719C17.8784 47.6321 17.8784 47.0922 17.8784 46.5359C17.3365 46.5359 16.7947 46.5359 16.2365 46.5359C16.2365 46.4759 16.2365 46.4159 16.2365 46.3541C16.7783 46.3541 17.3201 46.3541 17.8784 46.3541C17.8784 45.8142 17.8784 45.2744 17.8784 44.7181Z" fill="#A2C6D3"/>
<path d="M21.7095 25.2675C22.0707 25.2675 22.4319 25.2675 22.8041 25.2675C22.8041 25.6275 22.8041 25.9874 22.8041 26.3582C22.4429 26.4182 22.0816 26.4782 21.7095 26.54C21.7095 26.1201 21.7095 25.7002 21.7095 25.2675Z" fill="#010101"/>
<path d="M5.47296 19.6323C5.59337 19.6323 5.71377 19.6323 5.83783 19.6323C5.83783 20.1122 5.83783 20.5921 5.83783 21.0866C6.25925 21.0866 6.68066 21.0866 7.11485 21.0866C7.17506 21.2066 7.23526 21.3265 7.29729 21.4501C6.69526 21.4501 6.09323 21.4501 5.47296 21.4501C5.47296 20.8503 5.47296 20.2504 5.47296 19.6323Z" fill="#060C0C"/>
<path d="M4.01352 17.0874C4.07372 17.0874 4.13392 17.0874 4.19595 17.0874C4.25615 17.7473 4.31635 18.4071 4.37838 19.087C4.92021 19.177 4.92021 19.177 5.47298 19.2688C5.47298 19.3887 5.47298 19.5087 5.47298 19.6323C4.87095 19.6323 4.26892 19.6323 3.64865 19.6323C3.70885 19.5124 3.76906 19.3924 3.83108 19.2688C3.87278 18.8984 3.90593 18.527 3.9337 18.1554C3.94899 17.9562 3.96427 17.757 3.98002 17.5518C3.99108 17.3985 4.00213 17.2453 4.01352 17.0874Z" fill="#060C0B"/>
<path d="M16.054 21.4501C16.6561 21.4501 17.2581 21.4501 17.8784 21.4501C17.8784 21.5101 17.8784 21.5701 17.8784 21.6319C17.7091 21.6319 17.5397 21.6319 17.3653 21.6319C16.7727 21.7454 16.7727 21.7454 16.5892 22.1496C16.4537 22.5196 16.3358 22.8868 16.2365 23.268C16.1763 23.268 16.1161 23.268 16.054 23.268C16.054 22.6681 16.054 22.0682 16.054 21.4501Z" fill="#404C58"/>
<path d="M5.83783 2.36315C6.13884 2.36315 6.43986 2.36315 6.74999 2.36315C6.74999 2.66309 6.74999 2.96303 6.74999 3.27206C6.44898 3.27206 6.14796 3.27206 5.83783 3.27206C5.83783 2.97212 5.83783 2.67218 5.83783 2.36315Z" fill="#010102"/>
<path d="M3.83109 48.7173C4.1923 48.7173 4.55352 48.7173 4.92568 48.7173C4.92568 48.9572 4.92568 49.1972 4.92568 49.4444C4.56446 49.4444 4.20325 49.4444 3.83109 49.4444C3.83109 49.2045 3.83109 48.9645 3.83109 48.7173Z" fill="#000203"/>
<path d="M7.47974 21.2684C7.90116 21.3284 8.32257 21.3883 8.75676 21.4501C8.75676 21.5101 8.75676 21.5701 8.75676 21.6319C8.45575 21.6919 8.15474 21.7519 7.8446 21.8137C7.7844 22.1736 7.7242 22.5336 7.66217 22.9044C8.02338 22.9044 8.3846 22.9044 8.75676 22.9044C8.75676 22.9644 8.75676 23.0244 8.75676 23.0862C8.33534 23.0862 7.91393 23.0862 7.47974 23.0862C7.47974 22.4863 7.47974 21.8864 7.47974 21.2684Z" fill="#0C1113"/>
</svg>
